<svg width="199" height="231" viewBox="0 0 199 231" fill="none" xmlns="http://www.w3.org/2000/svg">
<path d="M99.5 0L198.66 57.75V173.25L99.5 231L0.340088 173.25V57.75L99.5 0Z" fill="#5BC0BE"/>
<path d="M132.557 84.7137C135.338 86.2294 135.338 90.2221 132.557 91.7379L86.0226 117.104C83.3571 118.557 80.1082 116.627 80.1082 113.592L80.1082 62.8599C80.1082 59.8241 83.3571 57.8948 86.0226 59.3478L132.557 84.7137Z" stroke="white" stroke-width="8"/>
<path d="M48.4492 161.301C47.668 161.965 46.7969 162.477 45.8359 162.836C44.875 163.188 43.875 163.363 42.8359 163.363C42.0391 163.363 41.2695 163.258 40.5273 163.047C39.793 162.844 39.1055 162.555 38.4648 162.18C37.8242 161.797 37.2383 161.344 36.707 160.82C36.1758 160.289 35.7227 159.703 35.3477 159.062C34.9727 158.414 34.6797 157.719 34.4688 156.977C34.2656 156.234 34.1641 155.465 34.1641 154.668C34.1641 153.871 34.2656 153.105 34.4688 152.371C34.6797 151.637 34.9727 150.949 35.3477 150.309C35.7227 149.66 36.1758 149.074 36.707 148.551C37.2383 148.02 37.8242 147.566 38.4648 147.191C39.1055 146.816 39.793 146.527 40.5273 146.324C41.2695 146.113 42.0391 146.008 42.8359 146.008C43.875 146.008 44.875 146.188 45.8359 146.547C46.7969 146.898 47.668 147.406 48.4492 148.07L46.6914 151C46.1836 150.484 45.5977 150.082 44.9336 149.793C44.2695 149.496 43.5703 149.348 42.8359 149.348C42.1016 149.348 41.4102 149.488 40.7617 149.77C40.1211 150.051 39.5586 150.434 39.0742 150.918C38.5898 151.395 38.207 151.957 37.9258 152.605C37.6445 153.246 37.5039 153.934 37.5039 154.668C37.5039 155.41 37.6445 156.105 37.9258 156.754C38.207 157.402 38.5898 157.969 39.0742 158.453C39.5586 158.938 40.1211 159.32 40.7617 159.602C41.4102 159.883 42.1016 160.023 42.8359 160.023C43.2578 160.023 43.668 159.973 44.0664 159.871C44.4648 159.77 44.8438 159.629 45.2031 159.449V154.668H48.4492V161.301ZM55.6914 159.93C55.8164 159.969 55.9414 159.996 56.0664 160.012C56.1914 160.02 56.3164 160.023 56.4414 160.023C56.7539 160.023 57.0547 159.98 57.3438 159.895C57.6328 159.809 57.9023 159.688 58.1523 159.531C58.4102 159.367 58.6367 159.172 58.832 158.945C59.0352 158.711 59.1992 158.453 59.3242 158.172L61.668 160.527C61.3711 160.949 61.0273 161.328 60.6367 161.664C60.2539 162 59.8359 162.285 59.3828 162.52C58.9375 162.754 58.4648 162.93 57.9648 163.047C57.4727 163.172 56.9648 163.234 56.4414 163.234C55.5586 163.234 54.7266 163.07 53.9453 162.742C53.1719 162.414 52.4922 161.957 51.9062 161.371C51.3281 160.785 50.8711 160.09 50.5352 159.285C50.1992 158.473 50.0312 157.582 50.0312 156.613C50.0312 155.621 50.1992 154.715 50.5352 153.895C50.8711 153.074 51.3281 152.375 51.9062 151.797C52.4922 151.219 53.1719 150.77 53.9453 150.449C54.7266 150.129 55.5586 149.969 56.4414 149.969C56.9648 149.969 57.4766 150.031 57.9766 150.156C58.4766 150.281 58.9492 150.461 59.3945 150.695C59.8477 150.93 60.2695 151.219 60.6602 151.562C61.0508 151.898 61.3945 152.277 61.6914 152.699L55.6914 159.93ZM57.332 153.332C57.1836 153.277 57.0352 153.242 56.8867 153.227C56.7461 153.211 56.5977 153.203 56.4414 153.203C56.0039 153.203 55.5898 153.285 55.1992 153.449C54.8164 153.605 54.4805 153.832 54.1914 154.129C53.9102 154.426 53.6875 154.785 53.5234 155.207C53.3594 155.621 53.2773 156.09 53.2773 156.613C53.2773 156.73 53.2812 156.863 53.2891 157.012C53.3047 157.16 53.3242 157.312 53.3477 157.469C53.3789 157.617 53.4141 157.762 53.4531 157.902C53.4922 158.043 53.543 158.168 53.6055 158.277L57.332 153.332ZM69.6016 163C68.8281 163 68.1016 162.855 67.4219 162.566C66.7422 162.27 66.1445 161.867 65.6289 161.359C65.1211 160.844 64.7188 160.246 64.4219 159.566C64.1328 158.887 63.9883 158.16 63.9883 157.387V153.66H62.4297V150.473H63.9883V145.457H67.1758V150.473H72.0273V153.66H67.1758V157.387C67.1758 157.723 67.2383 158.039 67.3633 158.336C67.4883 158.625 67.6602 158.879 67.8789 159.098C68.0977 159.316 68.3555 159.492 68.6523 159.625C68.9492 159.75 69.2656 159.812 69.6016 159.812H72.0273V163H69.6016ZM79.9141 151.234C79.9141 150.539 80.0469 149.887 80.3125 149.277C80.5781 148.668 80.9375 148.137 81.3906 147.684C81.8516 147.223 82.3867 146.859 82.9961 146.594C83.6055 146.328 84.2578 146.195 84.9531 146.195H92.6641V149.559H84.9531C84.7188 149.559 84.5 149.602 84.2969 149.688C84.0938 149.773 83.9141 149.895 83.7578 150.051C83.6094 150.199 83.4922 150.375 83.4062 150.578C83.3203 150.781 83.2773 151 83.2773 151.234C83.2773 151.469 83.3203 151.691 83.4062 151.902C83.4922 152.105 83.6094 152.285 83.7578 152.441C83.9141 152.59 84.0938 152.707 84.2969 152.793C84.5 152.879 84.7188 152.922 84.9531 152.922H88.3164C89.0117 152.922 89.6641 153.055 90.2734 153.32C90.8906 153.578 91.4258 153.938 91.8789 154.398C92.3398 154.852 92.6992 155.387 92.957 156.004C93.2227 156.613 93.3555 157.266 93.3555 157.961C93.3555 158.656 93.2227 159.309 92.957 159.918C92.6992 160.527 92.3398 161.062 91.8789 161.523C91.4258 161.977 90.8906 162.336 90.2734 162.602C89.6641 162.867 89.0117 163 88.3164 163H80.8516V159.637H88.3164C88.5508 159.637 88.7695 159.594 88.9727 159.508C89.1758 159.422 89.3516 159.305 89.5 159.156C89.6562 159 89.7773 158.82 89.8633 158.617C89.9492 158.414 89.9922 158.195 89.9922 157.961C89.9922 157.727 89.9492 157.508 89.8633 157.305C89.7773 157.102 89.6562 156.926 89.5 156.777C89.3516 156.621 89.1758 156.5 88.9727 156.414C88.7695 156.328 88.5508 156.285 88.3164 156.285H84.9531C84.2578 156.285 83.6055 156.152 82.9961 155.887C82.3867 155.621 81.8516 155.262 81.3906 154.809C80.9375 154.348 80.5781 153.812 80.3125 153.203C80.0469 152.586 79.9141 151.93 79.9141 151.234ZM101.312 163C100.539 163 99.8125 162.855 99.1328 162.566C98.4531 162.27 97.8555 161.867 97.3398 161.359C96.832 160.844 96.4297 160.246 96.1328 159.566C95.8438 158.887 95.6992 158.16 95.6992 157.387V153.66H94.1406V150.473H95.6992V145.457H98.8867V150.473H103.738V153.66H98.8867V157.387C98.8867 157.723 98.9492 158.039 99.0742 158.336C99.1992 158.625 99.3711 158.879 99.5898 159.098C99.8086 159.316 100.066 159.492 100.363 159.625C100.66 159.75 100.977 159.812 101.312 159.812H103.738V163H101.312ZM117.695 163H116.922L115.68 161.277C115.375 161.551 115.051 161.809 114.707 162.051C114.371 162.285 114.016 162.492 113.641 162.672C113.266 162.844 112.879 162.98 112.48 163.082C112.09 163.184 111.691 163.234 111.285 163.234C110.402 163.234 109.57 163.086 108.789 162.789C108.016 162.492 107.336 162.062 106.75 161.5C106.172 160.93 105.715 160.234 105.379 159.414C105.043 158.594 104.875 157.66 104.875 156.613C104.875 155.637 105.043 154.742 105.379 153.93C105.715 153.109 106.172 152.406 106.75 151.82C107.336 151.234 108.016 150.781 108.789 150.461C109.57 150.133 110.402 149.969 111.285 149.969C111.691 149.969 112.094 150.02 112.492 150.121C112.891 150.223 113.277 150.363 113.652 150.543C114.027 150.723 114.383 150.934 114.719 151.176C115.062 151.418 115.383 151.68 115.68 151.961L116.922 150.473H117.695V163ZM114.473 156.613C114.473 156.176 114.387 155.754 114.215 155.348C114.051 154.934 113.824 154.57 113.535 154.258C113.246 153.938 112.906 153.684 112.516 153.496C112.133 153.301 111.723 153.203 111.285 153.203C110.848 153.203 110.434 153.277 110.043 153.426C109.66 153.574 109.324 153.793 109.035 154.082C108.754 154.371 108.531 154.73 108.367 155.16C108.203 155.582 108.121 156.066 108.121 156.613C108.121 157.16 108.203 157.648 108.367 158.078C108.531 158.5 108.754 158.855 109.035 159.145C109.324 159.434 109.66 159.652 110.043 159.801C110.434 159.949 110.848 160.023 111.285 160.023C111.723 160.023 112.133 159.93 112.516 159.742C112.906 159.547 113.246 159.293 113.535 158.98C113.824 158.66 114.051 158.297 114.215 157.891C114.387 157.477 114.473 157.051 114.473 156.613ZM123.344 163H120.145V150.449H120.918L121.973 151.938C122.488 151.469 123.074 151.109 123.73 150.859C124.387 150.602 125.066 150.473 125.77 150.473H128.594V153.66H125.77C125.434 153.66 125.117 153.723 124.82 153.848C124.523 153.973 124.266 154.145 124.047 154.363C123.828 154.582 123.656 154.84 123.531 155.137C123.406 155.434 123.344 155.75 123.344 156.086V163ZM136.375 163C135.602 163 134.875 162.855 134.195 162.566C133.516 162.27 132.918 161.867 132.402 161.359C131.895 160.844 131.492 160.246 131.195 159.566C130.906 158.887 130.762 158.16 130.762 157.387V153.66H129.203V150.473H130.762V145.457H133.949V150.473H138.801V153.66H133.949V157.387C133.949 157.723 134.012 158.039 134.137 158.336C134.262 158.625 134.434 158.879 134.652 159.098C134.871 159.316 135.129 159.492 135.426 159.625C135.723 159.75 136.039 159.812 136.375 159.812H138.801V163H136.375ZM145.598 159.93C145.723 159.969 145.848 159.996 145.973 160.012C146.098 160.02 146.223 160.023 146.348 160.023C146.66 160.023 146.961 159.98 147.25 159.895C147.539 159.809 147.809 159.688 148.059 159.531C148.316 159.367 148.543 159.172 148.738 158.945C148.941 158.711 149.105 158.453 149.23 158.172L151.574 160.527C151.277 160.949 150.934 161.328 150.543 161.664C150.16 162 149.742 162.285 149.289 162.52C148.844 162.754 148.371 162.93 147.871 163.047C147.379 163.172 146.871 163.234 146.348 163.234C145.465 163.234 144.633 163.07 143.852 162.742C143.078 162.414 142.398 161.957 141.812 161.371C141.234 160.785 140.777 160.09 140.441 159.285C140.105 158.473 139.938 157.582 139.938 156.613C139.938 155.621 140.105 154.715 140.441 153.895C140.777 153.074 141.234 152.375 141.812 151.797C142.398 151.219 143.078 150.77 143.852 150.449C144.633 150.129 145.465 149.969 146.348 149.969C146.871 149.969 147.383 150.031 147.883 150.156C148.383 150.281 148.855 150.461 149.301 150.695C149.754 150.93 150.176 151.219 150.566 151.562C150.957 151.898 151.301 152.277 151.598 152.699L145.598 159.93ZM147.238 153.332C147.09 153.277 146.941 153.242 146.793 153.227C146.652 153.211 146.504 153.203 146.348 153.203C145.91 153.203 145.496 153.285 145.105 153.449C144.723 153.605 144.387 153.832 144.098 154.129C143.816 154.426 143.594 154.785 143.43 155.207C143.266 155.621 143.184 156.09 143.184 156.613C143.184 156.73 143.188 156.863 143.195 157.012C143.211 157.16 143.23 157.312 143.254 157.469C143.285 157.617 143.32 157.762 143.359 157.902C143.398 158.043 143.449 158.168 143.512 158.277L147.238 153.332ZM165.25 163H164.477L163.234 161.277C162.93 161.551 162.605 161.809 162.262 162.051C161.926 162.285 161.57 162.492 161.195 162.672C160.82 162.844 160.434 162.98 160.035 163.082C159.645 163.184 159.246 163.234 158.84 163.234C157.957 163.234 157.125 163.07 156.344 162.742C155.57 162.406 154.891 161.945 154.305 161.359C153.727 160.766 153.27 160.066 152.934 159.262C152.598 158.449 152.43 157.566 152.43 156.613C152.43 155.668 152.598 154.789 152.934 153.977C153.27 153.164 153.727 152.461 154.305 151.867C154.891 151.273 155.57 150.809 156.344 150.473C157.125 150.137 157.957 149.969 158.84 149.969C159.121 149.969 159.41 149.992 159.707 150.039C160.012 150.086 160.305 150.164 160.586 150.273C160.875 150.375 161.145 150.512 161.395 150.684C161.645 150.855 161.855 151.066 162.027 151.316V145.457H165.25V163ZM162.027 156.613C162.027 156.176 161.941 155.754 161.77 155.348C161.605 154.934 161.379 154.57 161.09 154.258C160.801 153.938 160.461 153.684 160.07 153.496C159.688 153.301 159.277 153.203 158.84 153.203C158.402 153.203 157.988 153.281 157.598 153.438C157.215 153.594 156.879 153.82 156.59 154.117C156.309 154.406 156.086 154.762 155.922 155.184C155.758 155.605 155.676 156.082 155.676 156.613C155.676 157.074 155.758 157.512 155.922 157.926C156.086 158.34 156.309 158.703 156.59 159.016C156.879 159.328 157.215 159.574 157.598 159.754C157.988 159.934 158.402 160.023 158.84 160.023C159.277 160.023 159.688 159.93 160.07 159.742C160.461 159.547 160.801 159.293 161.09 158.98C161.379 158.66 161.605 158.297 161.77 157.891C161.941 157.477 162.027 157.051 162.027 156.613Z" fill="white"/>
</svg>
