<svg width="675" height="569" viewBox="0 0 675 569" fill="none" xmlns="http://www.w3.org/2000/svg">
<path d="M99.5841 258.8C99.9201 259.616 100.472 260.96 101.24 262.832C102.008 264.656 102.872 266.744 103.832 269.096C104.84 271.448 105.872 273.944 106.928 276.584C108.032 279.224 109.064 281.72 110.024 284.072C110.984 286.424 111.848 288.536 112.616 290.408C113.384 292.232 113.936 293.552 114.272 294.368C114.32 294.464 114.44 294.8 114.632 295.376C114.824 295.952 114.968 296.456 115.064 296.888L115.784 294.368C116.12 293.552 116.672 292.232 117.44 290.408C118.208 288.536 119.072 286.424 120.032 284.072C120.992 281.72 122 279.224 123.056 276.584C124.16 273.944 125.192 271.448 126.152 269.096C127.16 266.744 128.048 264.656 128.816 262.832C129.584 260.96 130.136 259.616 130.472 258.8H138.248C137.96 259.472 137.432 260.696 136.664 262.472C135.944 264.2 135.056 266.312 134 268.808C132.944 271.304 131.768 274.04 130.472 277.016C129.224 279.992 127.928 283.016 126.584 286.088C125.288 289.16 123.992 292.184 122.696 295.16C121.448 298.136 120.296 300.872 119.24 303.368C118.232 305.864 117.344 308 116.576 309.776C115.856 311.504 115.352 312.704 115.064 313.376L91.8081 258.8H99.5841ZM139.348 269.384C139.348 268.232 139.756 267.272 140.572 266.504C141.436 265.736 142.348 265.352 143.308 265.352C144.268 265.352 145.156 265.736 145.972 266.504C146.788 267.272 147.196 268.232 147.196 269.384C147.196 270.536 146.788 271.496 145.972 272.264C145.156 272.984 144.268 273.344 143.308 273.344C142.348 273.344 141.436 272.984 140.572 272.264C139.756 271.496 139.348 270.536 139.348 269.384ZM146.26 311H140.14V280.904H146.26V311ZM152.89 295.952C152.89 293.6 153.274 291.464 154.042 289.544C154.858 287.576 155.962 285.896 157.354 284.504C158.746 283.112 160.378 282.032 162.25 281.264C164.17 280.496 166.234 280.112 168.442 280.112C169.93 280.112 171.25 280.304 172.402 280.688C173.602 281.024 174.61 281.456 175.426 281.984C176.29 282.464 177.01 283.016 177.586 283.64C178.162 284.264 178.594 284.816 178.882 285.296V255.056H185.074V311H178.882V308.768C178.882 308.48 178.906 308.168 178.954 307.832C179.002 307.448 179.026 307.136 179.026 306.896C178.546 307.472 177.97 308.048 177.298 308.624C176.674 309.152 175.93 309.656 175.066 310.136C174.202 310.616 173.194 311 172.042 311.288C170.938 311.576 169.666 311.72 168.226 311.72C165.826 311.72 163.666 311.312 161.746 310.496C159.874 309.632 158.266 308.504 156.922 307.112C155.626 305.672 154.618 303.992 153.898 302.072C153.226 300.152 152.89 298.112 152.89 295.952ZM159.082 295.88C159.082 297.272 159.322 298.568 159.802 299.768C160.33 300.968 161.026 302 161.89 302.864C162.754 303.728 163.786 304.424 164.986 304.952C166.186 305.432 167.506 305.672 168.946 305.672C170.386 305.672 171.706 305.432 172.906 304.952C174.154 304.424 175.21 303.728 176.074 302.864C176.986 301.952 177.682 300.92 178.162 299.768C178.642 298.568 178.882 297.272 178.882 295.88C178.882 294.488 178.642 293.216 178.162 292.064C177.682 290.864 176.986 289.832 176.074 288.968C175.21 288.104 174.154 287.432 172.906 286.952C171.706 286.424 170.386 286.16 168.946 286.16C167.506 286.16 166.186 286.424 164.986 286.952C163.786 287.432 162.754 288.104 161.89 288.968C161.026 289.832 160.33 290.864 159.802 292.064C159.322 293.216 159.082 294.488 159.082 295.88ZM219.206 307.472C217.766 308.768 216.014 309.8 213.95 310.568C211.886 311.336 209.774 311.72 207.614 311.72C205.406 311.72 203.318 311.312 201.35 310.496C199.43 309.632 197.75 308.504 196.31 307.112C194.87 305.672 193.718 303.992 192.854 302.072C192.038 300.152 191.63 298.112 191.63 295.952C191.63 293.792 192.038 291.752 192.854 289.832C193.718 287.912 194.87 286.232 196.31 284.792C197.75 283.352 199.406 282.224 201.278 281.408C203.198 280.544 205.238 280.112 207.398 280.112C210.806 280.112 213.758 281.144 216.254 283.208C218.798 285.224 220.622 287.888 221.726 291.2C220.238 291.728 218.534 292.376 216.614 293.144C214.694 293.912 212.702 294.728 210.638 295.592C208.574 296.408 206.51 297.224 204.446 298.04C202.382 298.856 200.462 299.6 198.686 300.272C199.502 301.904 200.678 303.224 202.214 304.232C203.798 305.192 205.55 305.672 207.47 305.672C208.766 305.672 210.062 305.432 211.358 304.952C212.702 304.472 213.782 303.824 214.598 303.008L219.206 307.472ZM214.022 289.76C213.446 288.56 212.534 287.672 211.286 287.096C210.038 286.472 208.766 286.16 207.47 286.16C206.078 286.16 204.782 286.424 203.582 286.952C202.43 287.48 201.422 288.2 200.558 289.112C199.694 289.976 198.998 290.984 198.47 292.136C197.99 293.288 197.75 294.464 197.75 295.664C197.75 295.904 197.75 296.072 197.75 296.168C197.798 296.264 197.822 296.336 197.822 296.384C199.07 295.904 200.414 295.376 201.854 294.8C203.342 294.176 204.806 293.576 206.246 293C207.686 292.376 209.078 291.8 210.422 291.272C211.766 290.696 212.966 290.192 214.022 289.76ZM224.959 295.88C224.959 293.72 225.367 291.68 226.183 289.76C227.047 287.84 228.199 286.184 229.639 284.792C231.079 283.352 232.759 282.224 234.679 281.408C236.647 280.544 238.759 280.112 241.015 280.112C243.271 280.112 245.359 280.544 247.279 281.408C249.247 282.224 250.927 283.352 252.319 284.792C253.759 286.184 254.863 287.84 255.631 289.76C256.447 291.68 256.855 293.72 256.855 295.88C256.855 298.04 256.447 300.08 255.631 302C254.863 303.92 253.759 305.6 252.319 307.04C250.927 308.48 249.247 309.632 247.279 310.496C245.359 311.312 243.247 311.72 240.943 311.72C238.735 311.72 236.647 311.336 234.679 310.568C232.759 309.8 231.079 308.72 229.639 307.328C228.199 305.936 227.047 304.28 226.183 302.36C225.367 300.392 224.959 298.232 224.959 295.88ZM231.079 295.952C231.079 297.296 231.319 298.568 231.799 299.768C232.327 300.92 233.023 301.952 233.887 302.864C234.799 303.728 235.831 304.424 236.983 304.952C238.183 305.432 239.455 305.672 240.799 305.672C242.143 305.672 243.415 305.432 244.615 304.952C245.815 304.424 246.847 303.728 247.711 302.864C248.623 301.952 249.343 300.92 249.871 299.768C250.399 298.568 250.663 297.296 250.663 295.952C250.663 294.608 250.399 293.336 249.871 292.136C249.343 290.936 248.623 289.904 247.711 289.04C246.847 288.128 245.815 287.432 244.615 286.952C243.415 286.424 242.143 286.16 240.799 286.16C239.455 286.16 238.183 286.424 236.983 286.952C235.831 287.432 234.799 288.128 233.887 289.04C233.023 289.904 232.327 290.936 231.799 292.136C231.319 293.336 231.079 294.608 231.079 295.952ZM311.96 261.68L309.152 268.088C307.184 267.368 305.216 266.792 303.248 266.36C301.328 265.928 299.48 265.712 297.704 265.712C294.68 265.712 292.256 266.336 290.432 267.584C288.656 268.832 287.768 270.416 287.768 272.336C287.768 273.968 288.416 275.288 289.712 276.296C291.008 277.256 292.616 278.144 294.536 278.96C296.456 279.728 298.544 280.52 300.8 281.336C303.056 282.104 305.144 283.112 307.064 284.36C308.984 285.608 310.592 287.192 311.888 289.112C313.184 290.984 313.832 293.408 313.832 296.384C313.832 298.688 313.4 300.776 312.536 302.648C311.72 304.472 310.472 306.056 308.792 307.4C307.16 308.744 305.096 309.776 302.6 310.496C300.152 311.216 297.272 311.576 293.96 311.576C291.848 311.576 289.928 311.432 288.2 311.144C286.52 310.856 284.984 310.496 283.592 310.064C282.248 309.584 281.048 309.08 279.992 308.552C278.984 308.024 278.12 307.544 277.4 307.112L280.856 300.272C282.776 301.376 284.912 302.264 287.264 302.936C289.616 303.608 291.752 303.944 293.672 303.944C294.632 303.944 295.808 303.824 297.2 303.584C298.64 303.344 300.008 302.936 301.304 302.36C302.6 301.736 303.704 300.92 304.616 299.912C305.576 298.904 306.056 297.632 306.056 296.096C306.056 294.704 305.672 293.528 304.904 292.568C304.184 291.56 303.2 290.696 301.952 289.976C300.752 289.208 299.36 288.536 297.776 287.96C296.24 287.336 294.656 286.712 293.024 286.088C291.392 285.416 289.784 284.72 288.2 284C286.664 283.28 285.272 282.416 284.024 281.408C282.824 280.352 281.84 279.152 281.072 277.808C280.352 276.416 279.992 274.76 279.992 272.84C279.992 271.064 280.352 269.312 281.072 267.584C281.792 265.856 282.872 264.32 284.312 262.976C285.752 261.632 287.528 260.552 289.64 259.736C291.8 258.92 294.296 258.512 297.128 258.512C298.856 258.512 300.536 258.656 302.168 258.944C303.848 259.232 305.36 259.568 306.704 259.952C308.048 260.288 309.176 260.624 310.088 260.96C311.048 261.296 311.672 261.536 311.96 261.68ZM322.1 267.656H328.22V280.976H336.284V286.448H328.22V311H322.1V286.448H316.7V280.976H322.1V267.656ZM357.935 288.032C356.591 288.032 355.295 288.224 354.047 288.608C352.799 288.944 351.671 289.472 350.663 290.192C349.703 290.912 348.935 291.824 348.359 292.928C347.783 293.984 347.495 295.208 347.495 296.6V311H341.375V280.904H346.775C346.871 282.392 346.943 283.76 346.991 285.008C347.087 286.208 347.183 287.408 347.279 288.608C347.903 287.312 348.719 286.136 349.727 285.08C350.735 284.024 351.815 283.136 352.967 282.416C354.119 281.696 355.247 281.144 356.351 280.76C357.455 280.328 358.439 280.112 359.303 280.112L357.935 288.032ZM388.66 307.472C387.22 308.768 385.468 309.8 383.404 310.568C381.34 311.336 379.228 311.72 377.068 311.72C374.86 311.72 372.772 311.312 370.804 310.496C368.884 309.632 367.204 308.504 365.764 307.112C364.324 305.672 363.172 303.992 362.308 302.072C361.492 300.152 361.084 298.112 361.084 295.952C361.084 293.792 361.492 291.752 362.308 289.832C363.172 287.912 364.324 286.232 365.764 284.792C367.204 283.352 368.86 282.224 370.732 281.408C372.652 280.544 374.692 280.112 376.852 280.112C380.26 280.112 383.212 281.144 385.708 283.208C388.252 285.224 390.076 287.888 391.18 291.2C389.692 291.728 387.988 292.376 386.068 293.144C384.148 293.912 382.156 294.728 380.092 295.592C378.028 296.408 375.964 297.224 373.9 298.04C371.836 298.856 369.916 299.6 368.14 300.272C368.956 301.904 370.132 303.224 371.668 304.232C373.252 305.192 375.004 305.672 376.924 305.672C378.22 305.672 379.516 305.432 380.812 304.952C382.156 304.472 383.236 303.824 384.052 303.008L388.66 307.472ZM383.476 289.76C382.9 288.56 381.988 287.672 380.74 287.096C379.492 286.472 378.22 286.16 376.924 286.16C375.532 286.16 374.236 286.424 373.036 286.952C371.884 287.48 370.876 288.2 370.012 289.112C369.148 289.976 368.452 290.984 367.924 292.136C367.444 293.288 367.204 294.464 367.204 295.664C367.204 295.904 367.204 296.072 367.204 296.168C367.252 296.264 367.276 296.336 367.276 296.384C368.524 295.904 369.868 295.376 371.308 294.8C372.796 294.176 374.26 293.576 375.7 293C377.14 292.376 378.532 291.8 379.876 291.272C381.22 290.696 382.42 290.192 383.476 289.76ZM394.412 296.24C394.412 294.032 394.82 291.968 395.636 290.048C396.5 288.08 397.652 286.376 399.092 284.936C400.532 283.448 402.188 282.272 404.06 281.408C405.98 280.544 408.02 280.112 410.18 280.112C411.62 280.112 412.94 280.304 414.14 280.688C415.34 281.024 416.372 281.456 417.236 281.984C418.1 282.512 418.796 283.064 419.324 283.64C419.852 284.216 420.212 284.72 420.404 285.152L420.692 280.904H426.596V311H420.404V307.184C420.164 307.568 419.78 308.024 419.252 308.552C418.724 309.08 418.028 309.584 417.164 310.064C416.348 310.496 415.364 310.88 414.212 311.216C413.06 311.552 411.74 311.72 410.252 311.72C407.948 311.72 405.812 311.312 403.844 310.496C401.924 309.632 400.268 308.504 398.876 307.112C397.484 305.672 396.38 304.016 395.564 302.144C394.796 300.272 394.412 298.304 394.412 296.24ZM400.604 295.88C400.604 297.272 400.844 298.568 401.324 299.768C401.852 300.968 402.548 302 403.412 302.864C404.276 303.728 405.308 304.424 406.508 304.952C407.708 305.432 409.028 305.672 410.468 305.672C411.908 305.672 413.228 305.432 414.428 304.952C415.676 304.424 416.732 303.728 417.596 302.864C418.508 301.952 419.204 300.92 419.684 299.768C420.164 298.568 420.404 297.272 420.404 295.88C420.404 294.488 420.164 293.216 419.684 292.064C419.204 290.864 418.508 289.832 417.596 288.968C416.732 288.104 415.676 287.432 414.428 286.952C413.228 286.424 411.908 286.16 410.468 286.16C409.028 286.16 407.708 286.424 406.508 286.952C405.308 287.432 404.276 288.104 403.412 288.968C402.548 289.832 401.852 290.864 401.324 292.064C400.844 293.216 400.604 294.488 400.604 295.88ZM435.242 280.904H440.642C440.738 282.392 440.81 283.76 440.858 285.008C440.954 286.208 441.05 287.408 441.146 288.608C442.25 286.016 443.69 283.976 445.466 282.488C447.29 280.952 449.714 280.16 452.738 280.112C455.666 280.112 458.018 280.856 459.794 282.344C461.57 283.832 462.602 285.776 462.89 288.176C464.09 285.728 465.554 283.784 467.282 282.344C469.058 280.904 471.434 280.16 474.41 280.112C477.53 280.112 479.978 280.952 481.754 282.632C483.578 284.312 484.538 286.472 484.634 289.112V311H478.442V291.92C478.346 290.384 477.818 289.088 476.858 288.032C475.946 286.928 474.434 286.328 472.322 286.232C469.442 286.232 467.186 287.168 465.554 289.04C463.922 290.864 463.058 293.216 462.962 296.096V311H456.842V291.92C456.746 290.384 456.194 289.088 455.186 288.032C454.226 286.928 452.738 286.328 450.722 286.232C449.282 286.232 447.986 286.496 446.834 287.024C445.682 287.504 444.698 288.176 443.882 289.04C443.066 289.904 442.442 290.936 442.01 292.136C441.578 293.336 441.362 294.656 441.362 296.096V311H435.242V280.904ZM518.456 307.472C517.016 308.768 515.264 309.8 513.2 310.568C511.136 311.336 509.024 311.72 506.864 311.72C504.656 311.72 502.568 311.312 500.6 310.496C498.68 309.632 497 308.504 495.56 307.112C494.12 305.672 492.968 303.992 492.104 302.072C491.288 300.152 490.88 298.112 490.88 295.952C490.88 293.792 491.288 291.752 492.104 289.832C492.968 287.912 494.12 286.232 495.56 284.792C497 283.352 498.656 282.224 500.528 281.408C502.448 280.544 504.488 280.112 506.648 280.112C510.056 280.112 513.008 281.144 515.504 283.208C518.048 285.224 519.872 287.888 520.976 291.2C519.488 291.728 517.784 292.376 515.864 293.144C513.944 293.912 511.952 294.728 509.888 295.592C507.824 296.408 505.76 297.224 503.696 298.04C501.632 298.856 499.712 299.6 497.936 300.272C498.752 301.904 499.928 303.224 501.464 304.232C503.048 305.192 504.8 305.672 506.72 305.672C508.016 305.672 509.312 305.432 510.608 304.952C511.952 304.472 513.032 303.824 513.848 303.008L518.456 307.472ZM513.272 289.76C512.696 288.56 511.784 287.672 510.536 287.096C509.288 286.472 508.016 286.16 506.72 286.16C505.328 286.16 504.032 286.424 502.832 286.952C501.68 287.48 500.672 288.2 499.808 289.112C498.944 289.976 498.248 290.984 497.72 292.136C497.24 293.288 497 294.464 497 295.664C497 295.904 497 296.072 497 296.168C497.048 296.264 497.072 296.336 497.072 296.384C498.32 295.904 499.664 295.376 501.104 294.8C502.592 294.176 504.056 293.576 505.496 293C506.936 292.376 508.328 291.8 509.672 291.272C511.016 290.696 512.216 290.192 513.272 289.76ZM542.857 288.032C541.513 288.032 540.217 288.224 538.969 288.608C537.721 288.944 536.593 289.472 535.585 290.192C534.625 290.912 533.857 291.824 533.281 292.928C532.705 293.984 532.417 295.208 532.417 296.6V311H526.297V280.904H531.697C531.793 282.392 531.865 283.76 531.913 285.008C532.009 286.208 532.105 287.408 532.201 288.608C532.825 287.312 533.641 286.136 534.649 285.08C535.657 284.024 536.737 283.136 537.889 282.416C539.041 281.696 540.169 281.144 541.273 280.76C542.377 280.328 543.361 280.112 544.225 280.112L542.857 288.032Z" fill="white"/>
<path d="M169.564 385.34L168.16 388.544C167.176 388.184 166.192 387.896 165.208 387.68C164.248 387.464 163.324 387.356 162.436 387.356C160.924 387.356 159.712 387.668 158.8 388.292C157.912 388.916 157.468 389.708 157.468 390.668C157.468 391.484 157.792 392.144 158.44 392.648C159.088 393.128 159.892 393.572 160.852 393.98C161.812 394.364 162.856 394.76 163.984 395.168C165.112 395.552 166.156 396.056 167.116 396.68C168.076 397.304 168.88 398.096 169.528 399.056C170.176 399.992 170.5 401.204 170.5 402.692C170.5 403.844 170.284 404.888 169.852 405.824C169.444 406.736 168.82 407.528 167.98 408.2C167.164 408.872 166.132 409.388 164.884 409.748C163.66 410.108 162.22 410.288 160.564 410.288C159.508 410.288 158.548 410.216 157.684 410.072C156.844 409.928 156.076 409.748 155.38 409.532C154.708 409.292 154.108 409.04 153.58 408.776C153.076 408.512 152.644 408.272 152.284 408.056L154.012 404.636C154.972 405.188 156.04 405.632 157.216 405.968C158.392 406.304 159.46 406.472 160.42 406.472C160.9 406.472 161.488 406.412 162.184 406.292C162.904 406.172 163.588 405.968 164.236 405.68C164.884 405.368 165.436 404.96 165.892 404.456C166.372 403.952 166.612 403.316 166.612 402.548C166.612 401.852 166.42 401.264 166.036 400.784C165.676 400.28 165.184 399.848 164.56 399.488C163.96 399.104 163.264 398.768 162.472 398.48C161.704 398.168 160.912 397.856 160.096 397.544C159.28 397.208 158.476 396.86 157.684 396.5C156.916 396.14 156.22 395.708 155.596 395.204C154.996 394.676 154.504 394.076 154.12 393.404C153.76 392.708 153.58 391.88 153.58 390.92C153.58 390.032 153.76 389.156 154.12 388.292C154.48 387.428 155.02 386.66 155.74 385.988C156.46 385.316 157.348 384.776 158.404 384.368C159.484 383.96 160.732 383.756 162.148 383.756C163.012 383.756 163.852 383.828 164.668 383.972C165.508 384.116 166.264 384.284 166.936 384.476C167.608 384.644 168.172 384.812 168.628 384.98C169.108 385.148 169.42 385.268 169.564 385.34ZM174.634 388.328H177.694V394.988H181.726V397.724H177.694V410H174.634V397.724H171.934V394.988H174.634V388.328ZM192.551 398.516C191.879 398.516 191.231 398.612 190.607 398.804C189.983 398.972 189.419 399.236 188.915 399.596C188.435 399.956 188.051 400.412 187.763 400.964C187.475 401.492 187.331 402.104 187.331 402.8V410H184.271V394.952H186.971C187.019 395.696 187.055 396.38 187.079 397.004C187.127 397.604 187.175 398.204 187.223 398.804C187.535 398.156 187.943 397.568 188.447 397.04C188.951 396.512 189.491 396.068 190.067 395.708C190.643 395.348 191.207 395.072 191.759 394.88C192.311 394.664 192.803 394.556 193.235 394.556L192.551 398.516ZM207.914 408.236C207.194 408.884 206.318 409.4 205.286 409.784C204.254 410.168 203.198 410.36 202.118 410.36C201.014 410.36 199.97 410.156 198.986 409.748C198.026 409.316 197.186 408.752 196.466 408.056C195.746 407.336 195.17 406.496 194.738 405.536C194.33 404.576 194.126 403.556 194.126 402.476C194.126 401.396 194.33 400.376 194.738 399.416C195.17 398.456 195.746 397.616 196.466 396.896C197.186 396.176 198.014 395.612 198.95 395.204C199.91 394.772 200.93 394.556 202.01 394.556C203.714 394.556 205.19 395.072 206.438 396.104C207.71 397.112 208.622 398.444 209.174 400.1C208.43 400.364 207.578 400.688 206.618 401.072C205.658 401.456 204.662 401.864 203.63 402.296C202.598 402.704 201.566 403.112 200.534 403.52C199.502 403.928 198.542 404.3 197.654 404.636C198.062 405.452 198.65 406.112 199.418 406.616C200.21 407.096 201.086 407.336 202.046 407.336C202.694 407.336 203.342 407.216 203.99 406.976C204.662 406.736 205.202 406.412 205.61 406.004L207.914 408.236ZM205.322 399.38C205.034 398.78 204.578 398.336 203.954 398.048C203.33 397.736 202.694 397.58 202.046 397.58C201.35 397.58 200.702 397.712 200.102 397.976C199.526 398.24 199.022 398.6 198.59 399.056C198.158 399.488 197.81 399.992 197.546 400.568C197.306 401.144 197.186 401.732 197.186 402.332C197.186 402.452 197.186 402.536 197.186 402.584C197.21 402.632 197.222 402.668 197.222 402.692C197.846 402.452 198.518 402.188 199.238 401.9C199.982 401.588 200.714 401.288 201.434 401C202.154 400.688 202.85 400.4 203.522 400.136C204.194 399.848 204.794 399.596 205.322 399.38ZM210.79 402.62C210.79 401.516 210.994 400.484 211.402 399.524C211.834 398.54 212.41 397.688 213.13 396.968C213.85 396.224 214.678 395.636 215.614 395.204C216.574 394.772 217.594 394.556 218.674 394.556C219.394 394.556 220.054 394.652 220.654 394.844C221.254 395.012 221.77 395.228 222.202 395.492C222.634 395.756 222.982 396.032 223.246 396.32C223.51 396.608 223.69 396.86 223.786 397.076L223.93 394.952H226.882V410H223.786V408.092C223.666 408.284 223.474 408.512 223.21 408.776C222.946 409.04 222.598 409.292 222.166 409.532C221.758 409.748 221.266 409.94 220.69 410.108C220.114 410.276 219.454 410.36 218.71 410.36C217.558 410.36 216.49 410.156 215.506 409.748C214.546 409.316 213.718 408.752 213.022 408.056C212.326 407.336 211.774 406.508 211.366 405.572C210.982 404.636 210.79 403.652 210.79 402.62ZM213.886 402.44C213.886 403.136 214.006 403.784 214.246 404.384C214.51 404.984 214.858 405.5 215.29 405.932C215.722 406.364 216.238 406.712 216.838 406.976C217.438 407.216 218.098 407.336 218.818 407.336C219.538 407.336 220.198 407.216 220.798 406.976C221.422 406.712 221.95 406.364 222.382 405.932C222.838 405.476 223.186 404.96 223.426 404.384C223.666 403.784 223.786 403.136 223.786 402.44C223.786 401.744 223.666 401.108 223.426 400.532C223.186 399.932 222.838 399.416 222.382 398.984C221.95 398.552 221.422 398.216 220.798 397.976C220.198 397.712 219.538 397.58 218.818 397.58C218.098 397.58 217.438 397.712 216.838 397.976C216.238 398.216 215.722 398.552 215.29 398.984C214.858 399.416 214.51 399.932 214.246 400.532C214.006 401.108 213.886 401.744 213.886 402.44ZM231.205 394.952H233.905C233.953 395.696 233.989 396.38 234.013 397.004C234.061 397.604 234.109 398.204 234.157 398.804C234.709 397.508 235.429 396.488 236.317 395.744C237.229 394.976 238.441 394.58 239.953 394.556C241.417 394.556 242.593 394.928 243.481 395.672C244.369 396.416 244.885 397.388 245.029 398.588C245.629 397.364 246.361 396.392 247.225 395.672C248.113 394.952 249.301 394.58 250.789 394.556C252.349 394.556 253.573 394.976 254.461 395.816C255.373 396.656 255.853 397.736 255.901 399.056V410H252.805V400.46C252.757 399.692 252.493 399.044 252.013 398.516C251.557 397.964 250.801 397.664 249.745 397.616C248.305 397.616 247.177 398.084 246.361 399.02C245.545 399.932 245.113 401.108 245.065 402.548V410H242.005V400.46C241.957 399.692 241.681 399.044 241.177 398.516C240.697 397.964 239.953 397.664 238.945 397.616C238.225 397.616 237.577 397.748 237.001 398.012C236.425 398.252 235.933 398.588 235.525 399.02C235.117 399.452 234.805 399.968 234.589 400.568C234.373 401.168 234.265 401.828 234.265 402.548V410H231.205V394.952ZM267.321 402.62C267.321 401.516 267.525 400.484 267.933 399.524C268.365 398.54 268.941 397.688 269.661 396.968C270.381 396.224 271.209 395.636 272.145 395.204C273.105 394.772 274.125 394.556 275.205 394.556C275.925 394.556 276.585 394.652 277.185 394.844C277.785 395.012 278.301 395.228 278.733 395.492C279.165 395.756 279.513 396.032 279.777 396.32C280.041 396.608 280.221 396.86 280.317 397.076L280.461 394.952H283.413V410H280.317V408.092C280.197 408.284 280.005 408.512 279.741 408.776C279.477 409.04 279.129 409.292 278.697 409.532C278.289 409.748 277.797 409.94 277.221 410.108C276.645 410.276 275.985 410.36 275.241 410.36C274.089 410.36 273.021 410.156 272.037 409.748C271.077 409.316 270.249 408.752 269.553 408.056C268.857 407.336 268.305 406.508 267.897 405.572C267.513 404.636 267.321 403.652 267.321 402.62ZM270.417 402.44C270.417 403.136 270.537 403.784 270.777 404.384C271.041 404.984 271.389 405.5 271.821 405.932C272.253 406.364 272.769 406.712 273.369 406.976C273.969 407.216 274.629 407.336 275.349 407.336C276.069 407.336 276.729 407.216 277.329 406.976C277.953 406.712 278.481 406.364 278.913 405.932C279.369 405.476 279.717 404.96 279.957 404.384C280.197 403.784 280.317 403.136 280.317 402.44C280.317 401.744 280.197 401.108 279.957 400.532C279.717 399.932 279.369 399.416 278.913 398.984C278.481 398.552 277.953 398.216 277.329 397.976C276.729 397.712 276.069 397.58 275.349 397.58C274.629 397.58 273.969 397.712 273.369 397.976C272.769 398.216 272.253 398.552 271.821 398.984C271.389 399.416 271.041 399.932 270.777 400.532C270.537 401.108 270.417 401.744 270.417 402.44ZM287.736 394.952H290.436C290.484 395.696 290.52 396.38 290.544 397.004C290.592 397.604 290.64 398.204 290.688 398.804C291.24 397.508 292.02 396.476 293.028 395.708C294.06 394.94 295.32 394.556 296.808 394.556C298.32 394.556 299.532 394.976 300.444 395.816C301.356 396.656 301.836 397.736 301.884 399.056V410H298.788V400.46C298.74 399.692 298.476 399.044 297.996 398.516C297.516 397.964 296.76 397.664 295.728 397.616C295.008 397.616 294.348 397.748 293.748 398.012C293.148 398.252 292.632 398.588 292.2 399.02C291.768 399.452 291.42 399.968 291.156 400.568C290.916 401.168 290.796 401.828 290.796 402.548V410H287.736V394.952ZM305.045 402.476C305.045 401.3 305.237 400.232 305.621 399.272C306.029 398.288 306.581 397.448 307.277 396.752C307.973 396.056 308.789 395.516 309.725 395.132C310.685 394.748 311.717 394.556 312.821 394.556C313.565 394.556 314.225 394.652 314.801 394.844C315.401 395.012 315.905 395.228 316.313 395.492C316.745 395.732 317.105 396.008 317.393 396.32C317.681 396.632 317.897 396.908 318.041 397.148V382.028H321.137V410H318.041V408.884C318.041 408.74 318.053 408.584 318.077 408.416C318.101 408.224 318.113 408.068 318.113 407.948C317.873 408.236 317.585 408.524 317.249 408.812C316.937 409.076 316.565 409.328 316.133 409.568C315.701 409.808 315.197 410 314.621 410.144C314.069 410.288 313.433 410.36 312.713 410.36C311.513 410.36 310.433 410.156 309.473 409.748C308.537 409.316 307.733 408.752 307.061 408.056C306.413 407.336 305.909 406.496 305.549 405.536C305.213 404.576 305.045 403.556 305.045 402.476ZM308.141 402.44C308.141 403.136 308.261 403.784 308.501 404.384C308.765 404.984 309.113 405.5 309.545 405.932C309.977 406.364 310.493 406.712 311.093 406.976C311.693 407.216 312.353 407.336 313.073 407.336C313.793 407.336 314.453 407.216 315.053 406.976C315.677 406.712 316.205 406.364 316.637 405.932C317.093 405.476 317.441 404.96 317.681 404.384C317.921 403.784 318.041 403.136 318.041 402.44C318.041 401.744 317.921 401.108 317.681 400.532C317.441 399.932 317.093 399.416 316.637 398.984C316.205 398.552 315.677 398.216 315.053 397.976C314.453 397.712 313.793 397.58 313.073 397.58C312.353 397.58 311.693 397.712 311.093 397.976C310.493 398.216 309.977 398.552 309.545 398.984C309.113 399.416 308.765 399.932 308.501 400.532C308.261 401.108 308.141 401.744 308.141 402.44ZM338.76 387.464V395.168H342.288C343.584 395.168 344.556 394.784 345.204 394.016C345.852 393.248 346.176 392.312 346.176 391.208C346.176 389.912 345.78 388.964 344.988 388.364C344.22 387.764 343.188 387.464 341.892 387.464H338.76ZM338.76 398.516V406.436H342.432C343.128 406.436 343.776 406.352 344.376 406.184C345 406.016 345.54 405.776 345.996 405.464C346.452 405.128 346.812 404.708 347.076 404.204C347.34 403.7 347.472 403.112 347.472 402.44C347.472 401.696 347.316 401.084 347.004 400.604C346.692 400.1 346.272 399.692 345.744 399.38C345.24 399.068 344.652 398.852 343.98 398.732C343.332 398.588 342.66 398.516 341.964 398.516H338.76ZM334.8 410V383.9H341.712C342.984 383.9 344.136 384.032 345.168 384.296C346.2 384.536 347.076 384.932 347.796 385.484C348.516 386.012 349.068 386.708 349.452 387.572C349.86 388.412 350.064 389.444 350.064 390.668C350.064 391.34 349.992 392 349.848 392.648C349.728 393.296 349.512 393.896 349.2 394.448C348.912 394.976 348.516 395.444 348.012 395.852C347.532 396.26 346.932 396.572 346.212 396.788C346.836 396.908 347.448 397.112 348.048 397.4C348.672 397.688 349.224 398.084 349.704 398.588C350.184 399.068 350.568 399.668 350.856 400.388C351.168 401.108 351.324 401.96 351.324 402.944C351.324 404.192 351.084 405.26 350.604 406.148C350.124 407.036 349.488 407.768 348.696 408.344C347.904 408.92 346.992 409.34 345.96 409.604C344.928 409.868 343.86 410 342.756 410H334.8ZM362.883 398.516C362.211 398.516 361.563 398.612 360.939 398.804C360.315 398.972 359.751 399.236 359.247 399.596C358.767 399.956 358.383 400.412 358.095 400.964C357.807 401.492 357.663 402.104 357.663 402.8V410H354.603V394.952H357.303C357.351 395.696 357.387 396.38 357.411 397.004C357.459 397.604 357.507 398.204 357.555 398.804C357.867 398.156 358.275 397.568 358.779 397.04C359.283 396.512 359.823 396.068 360.399 395.708C360.975 395.348 361.539 395.072 362.091 394.88C362.643 394.664 363.135 394.556 363.567 394.556L362.883 398.516ZM364.458 402.44C364.458 401.36 364.662 400.34 365.07 399.38C365.502 398.42 366.078 397.592 366.798 396.896C367.518 396.176 368.358 395.612 369.318 395.204C370.302 394.772 371.358 394.556 372.486 394.556C373.614 394.556 374.658 394.772 375.618 395.204C376.602 395.612 377.442 396.176 378.138 396.896C378.858 397.592 379.41 398.42 379.794 399.38C380.202 400.34 380.406 401.36 380.406 402.44C380.406 403.52 380.202 404.54 379.794 405.5C379.41 406.46 378.858 407.3 378.138 408.02C377.442 408.74 376.602 409.316 375.618 409.748C374.658 410.156 373.602 410.36 372.45 410.36C371.346 410.36 370.302 410.168 369.318 409.784C368.358 409.4 367.518 408.86 366.798 408.164C366.078 407.468 365.502 406.64 365.07 405.68C364.662 404.696 364.458 403.616 364.458 402.44ZM367.518 402.476C367.518 403.148 367.638 403.784 367.878 404.384C368.142 404.96 368.49 405.476 368.922 405.932C369.378 406.364 369.894 406.712 370.47 406.976C371.07 407.216 371.706 407.336 372.378 407.336C373.05 407.336 373.686 407.216 374.286 406.976C374.886 406.712 375.402 406.364 375.834 405.932C376.29 405.476 376.65 404.96 376.914 404.384C377.178 403.784 377.31 403.148 377.31 402.476C377.31 401.804 377.178 401.168 376.914 400.568C376.65 399.968 376.29 399.452 375.834 399.02C375.402 398.564 374.886 398.216 374.286 397.976C373.686 397.712 373.05 397.58 372.378 397.58C371.706 397.58 371.07 397.712 370.47 397.976C369.894 398.216 369.378 398.564 368.922 399.02C368.49 399.452 368.142 399.968 367.878 400.568C367.638 401.168 367.518 401.804 367.518 402.476ZM382.634 402.62C382.634 401.516 382.838 400.484 383.246 399.524C383.678 398.54 384.254 397.688 384.974 396.968C385.694 396.224 386.522 395.636 387.458 395.204C388.418 394.772 389.438 394.556 390.518 394.556C391.238 394.556 391.898 394.652 392.498 394.844C393.098 395.012 393.614 395.228 394.046 395.492C394.478 395.756 394.826 396.032 395.09 396.32C395.354 396.608 395.534 396.86 395.63 397.076L395.774 394.952H398.726V410H395.63V408.092C395.51 408.284 395.318 408.512 395.054 408.776C394.79 409.04 394.442 409.292 394.01 409.532C393.602 409.748 393.11 409.94 392.534 410.108C391.958 410.276 391.298 410.36 390.554 410.36C389.402 410.36 388.334 410.156 387.35 409.748C386.39 409.316 385.562 408.752 384.866 408.056C384.17 407.336 383.618 406.508 383.21 405.572C382.826 404.636 382.634 403.652 382.634 402.62ZM385.73 402.44C385.73 403.136 385.85 403.784 386.09 404.384C386.354 404.984 386.702 405.5 387.134 405.932C387.566 406.364 388.082 406.712 388.682 406.976C389.282 407.216 389.942 407.336 390.662 407.336C391.382 407.336 392.042 407.216 392.642 406.976C393.266 406.712 393.794 406.364 394.226 405.932C394.682 405.476 395.03 404.96 395.27 404.384C395.51 403.784 395.63 403.136 395.63 402.44C395.63 401.744 395.51 401.108 395.27 400.532C395.03 399.932 394.682 399.416 394.226 398.984C393.794 398.552 393.266 398.216 392.642 397.976C392.042 397.712 391.382 397.58 390.662 397.58C389.942 397.58 389.282 397.712 388.682 397.976C388.082 398.216 387.566 398.552 387.134 398.984C386.702 399.416 386.354 399.932 386.09 400.532C385.85 401.108 385.73 401.744 385.73 402.44ZM402.041 402.476C402.041 401.3 402.233 400.232 402.617 399.272C403.025 398.288 403.577 397.448 404.273 396.752C404.969 396.056 405.785 395.516 406.721 395.132C407.681 394.748 408.713 394.556 409.817 394.556C410.561 394.556 411.221 394.652 411.797 394.844C412.397 395.012 412.901 395.228 413.309 395.492C413.741 395.732 414.101 396.008 414.389 396.32C414.677 396.632 414.893 396.908 415.037 397.148V382.028H418.133V410H415.037V408.884C415.037 408.74 415.049 408.584 415.073 408.416C415.097 408.224 415.109 408.068 415.109 407.948C414.869 408.236 414.581 408.524 414.245 408.812C413.933 409.076 413.561 409.328 413.129 409.568C412.697 409.808 412.193 410 411.617 410.144C411.065 410.288 410.429 410.36 409.709 410.36C408.509 410.36 407.429 410.156 406.469 409.748C405.533 409.316 404.729 408.752 404.057 408.056C403.409 407.336 402.905 406.496 402.545 405.536C402.209 404.576 402.041 403.556 402.041 402.476ZM405.137 402.44C405.137 403.136 405.257 403.784 405.497 404.384C405.761 404.984 406.109 405.5 406.541 405.932C406.973 406.364 407.489 406.712 408.089 406.976C408.689 407.216 409.349 407.336 410.069 407.336C410.789 407.336 411.449 407.216 412.049 406.976C412.673 406.712 413.201 406.364 413.633 405.932C414.089 405.476 414.437 404.96 414.677 404.384C414.917 403.784 415.037 403.136 415.037 402.44C415.037 401.744 414.917 401.108 414.677 400.532C414.437 399.932 414.089 399.416 413.633 398.984C413.201 398.552 412.673 398.216 412.049 397.976C411.449 397.712 410.789 397.58 410.069 397.58C409.349 397.58 408.689 397.712 408.089 397.976C407.489 398.216 406.973 398.552 406.541 398.984C406.109 399.416 405.761 399.932 405.497 400.532C405.257 401.108 405.137 401.744 405.137 402.44ZM432.535 406.292C432.871 406.7 433.183 407.096 433.471 407.48C433.783 407.84 434.095 408.224 434.407 408.632C433.735 409.16 432.979 409.58 432.139 409.892C431.299 410.204 430.387 410.36 429.403 410.36C428.299 410.36 427.255 410.156 426.271 409.748C425.311 409.316 424.471 408.74 423.751 408.02C423.031 407.3 422.455 406.46 422.023 405.5C421.615 404.54 421.411 403.52 421.411 402.44C421.411 401.36 421.615 400.34 422.023 399.38C422.455 398.42 423.031 397.592 423.751 396.896C424.471 396.176 425.311 395.612 426.271 395.204C427.255 394.772 428.299 394.556 429.403 394.556C430.411 394.556 431.335 394.712 432.175 395.024C433.039 395.336 433.819 395.756 434.515 396.284L432.535 398.624C432.127 398.288 431.659 398.036 431.131 397.868C430.603 397.676 430.027 397.58 429.403 397.58C428.683 397.58 428.023 397.712 427.423 397.976C426.823 398.216 426.295 398.552 425.839 398.984C425.407 399.416 425.071 399.932 424.831 400.532C424.591 401.108 424.471 401.744 424.471 402.44C424.471 403.136 424.591 403.784 424.831 404.384C425.071 404.96 425.407 405.476 425.839 405.932C426.295 406.364 426.823 406.712 427.423 406.976C428.023 407.216 428.683 407.336 429.403 407.336C430.027 407.336 430.603 407.252 431.131 407.084C431.659 406.892 432.127 406.628 432.535 406.292ZM435.86 402.62C435.86 401.516 436.064 400.484 436.472 399.524C436.904 398.54 437.48 397.688 438.2 396.968C438.92 396.224 439.748 395.636 440.684 395.204C441.644 394.772 442.664 394.556 443.744 394.556C444.464 394.556 445.124 394.652 445.724 394.844C446.324 395.012 446.84 395.228 447.272 395.492C447.704 395.756 448.052 396.032 448.316 396.32C448.58 396.608 448.76 396.86 448.856 397.076L449 394.952H451.952V410H448.856V408.092C448.736 408.284 448.544 408.512 448.28 408.776C448.016 409.04 447.668 409.292 447.236 409.532C446.828 409.748 446.336 409.94 445.76 410.108C445.184 410.276 444.524 410.36 443.78 410.36C442.628 410.36 441.56 410.156 440.576 409.748C439.616 409.316 438.788 408.752 438.092 408.056C437.396 407.336 436.844 406.508 436.436 405.572C436.052 404.636 435.86 403.652 435.86 402.62ZM438.956 402.44C438.956 403.136 439.076 403.784 439.316 404.384C439.58 404.984 439.928 405.5 440.36 405.932C440.792 406.364 441.308 406.712 441.908 406.976C442.508 407.216 443.168 407.336 443.888 407.336C444.608 407.336 445.268 407.216 445.868 406.976C446.492 406.712 447.02 406.364 447.452 405.932C447.908 405.476 448.256 404.96 448.496 404.384C448.736 403.784 448.856 403.136 448.856 402.44C448.856 401.744 448.736 401.108 448.496 400.532C448.256 399.932 447.908 399.416 447.452 398.984C447.02 398.552 446.492 398.216 445.868 397.976C445.268 397.712 444.608 397.58 443.888 397.58C443.168 397.58 442.508 397.712 441.908 397.976C441.308 398.216 440.792 398.552 440.36 398.984C439.928 399.416 439.58 399.932 439.316 400.532C439.076 401.108 438.956 401.744 438.956 402.44ZM464.663 396.284L463.043 398.444C463.019 398.42 462.935 398.36 462.791 398.264C462.647 398.168 462.455 398.072 462.215 397.976C461.999 397.88 461.735 397.796 461.423 397.724C461.135 397.628 460.835 397.58 460.523 397.58C460.115 397.58 459.707 397.676 459.299 397.868C458.915 398.06 458.723 398.42 458.723 398.948C458.723 399.404 458.879 399.776 459.191 400.064C459.527 400.352 459.935 400.616 460.415 400.856C460.895 401.072 461.411 401.3 461.963 401.54C462.539 401.78 463.067 402.08 463.547 402.44C464.027 402.776 464.423 403.208 464.735 403.736C465.071 404.24 465.239 404.888 465.239 405.68C465.239 407.024 464.771 408.14 463.835 409.028C462.923 409.892 461.663 410.324 460.055 410.324C459.119 410.324 458.195 410.168 457.283 409.856C456.395 409.52 455.675 409.04 455.123 408.416C455.291 408.248 455.471 408.032 455.663 407.768C455.879 407.504 456.083 407.252 456.275 407.012C456.491 406.772 456.659 406.58 456.779 406.436C456.923 406.268 457.007 406.184 457.031 406.184C457.031 406.208 457.115 406.28 457.283 406.4C457.475 406.52 457.715 406.652 458.003 406.796C458.291 406.916 458.615 407.036 458.975 407.156C459.335 407.252 459.695 407.3 460.055 407.3C460.631 407.3 461.123 407.156 461.531 406.868C461.939 406.58 462.143 406.196 462.143 405.716C462.143 405.284 461.975 404.948 461.639 404.708C461.327 404.444 460.931 404.204 460.451 403.988C459.971 403.772 459.443 403.556 458.867 403.34C458.291 403.1 457.763 402.8 457.283 402.44C456.803 402.08 456.395 401.636 456.059 401.108C455.747 400.556 455.591 399.848 455.591 398.984C455.591 398.168 455.735 397.484 456.023 396.932C456.335 396.38 456.719 395.936 457.175 395.6C457.655 395.24 458.183 394.988 458.759 394.844C459.335 394.676 459.887 394.592 460.415 394.592C461.111 394.592 461.855 394.736 462.647 395.024C463.439 395.312 464.111 395.732 464.663 396.284ZM469.806 388.328H472.866V394.988H476.898V397.724H472.866V410H469.806V397.724H467.106V394.988H469.806V388.328ZM176.403 464V437.9H180.327V448.988H193.395V437.9H197.355C197.355 438.212 197.355 438.8 197.355 439.664C197.355 440.504 197.355 441.512 197.355 442.688C197.355 443.864 197.355 445.172 197.355 446.612C197.355 448.028 197.343 449.48 197.319 450.968C197.319 452.432 197.319 453.884 197.319 455.324C197.319 456.74 197.319 458.036 197.319 459.212C197.319 460.388 197.319 461.408 197.319 462.272C197.319 463.112 197.319 463.688 197.319 464H193.395V452.732H180.327V464H176.403ZM201.998 443.192C201.998 442.616 202.202 442.136 202.61 441.752C203.042 441.368 203.498 441.176 203.978 441.176C204.458 441.176 204.902 441.368 205.31 441.752C205.718 442.136 205.922 442.616 205.922 443.192C205.922 443.768 205.718 444.248 205.31 444.632C204.902 444.992 204.458 445.172 203.978 445.172C203.498 445.172 203.042 444.992 202.61 444.632C202.202 444.248 201.998 443.768 201.998 443.192ZM205.454 464H202.394V448.952H205.454V464ZM208.769 456.512C208.769 455.384 208.973 454.34 209.381 453.38C209.789 452.396 210.341 451.556 211.037 450.86C211.733 450.14 212.549 449.576 213.485 449.168C214.421 448.76 215.417 448.556 216.473 448.556C217.289 448.556 218.009 448.664 218.633 448.88C219.281 449.096 219.821 449.348 220.253 449.636C220.685 449.924 221.021 450.212 221.261 450.5C221.525 450.764 221.693 450.956 221.765 451.076C221.765 450.74 221.789 450.392 221.837 450.032C221.885 449.648 221.909 449.288 221.909 448.952H224.861V463.316C224.861 465.812 224.129 467.756 222.665 469.148C221.201 470.54 219.221 471.236 216.725 471.236C215.861 471.236 215.081 471.14 214.385 470.948C213.713 470.78 213.089 470.552 212.513 470.264C211.961 469.976 211.445 469.64 210.965 469.256C210.509 468.872 210.053 468.476 209.597 468.068L211.577 465.98C212.321 466.676 213.077 467.228 213.845 467.636C214.637 468.044 215.573 468.248 216.653 468.248C218.261 468.248 219.509 467.864 220.397 467.096C221.285 466.328 221.741 465.26 221.765 463.892V462.848C221.765 462.656 221.789 462.452 221.837 462.236C221.885 461.996 221.909 461.816 221.909 461.696C221.693 461.984 221.417 462.296 221.081 462.632C220.769 462.944 220.397 463.232 219.965 463.496C219.533 463.736 219.029 463.94 218.453 464.108C217.877 464.276 217.229 464.36 216.509 464.36C215.381 464.36 214.349 464.156 213.413 463.748C212.477 463.34 211.661 462.788 210.965 462.092C210.269 461.372 209.729 460.544 209.345 459.608C208.961 458.648 208.769 457.616 208.769 456.512ZM211.865 456.44C211.865 457.136 211.985 457.784 212.225 458.384C212.489 458.984 212.837 459.5 213.269 459.932C213.701 460.364 214.217 460.712 214.817 460.976C215.417 461.216 216.077 461.336 216.797 461.336C217.517 461.336 218.177 461.216 218.777 460.976C219.401 460.712 219.929 460.364 220.361 459.932C220.817 459.476 221.165 458.96 221.405 458.384C221.645 457.784 221.765 457.136 221.765 456.44C221.765 455.744 221.645 455.108 221.405 454.532C221.165 453.932 220.817 453.416 220.361 452.984C219.929 452.552 219.401 452.216 218.777 451.976C218.177 451.712 217.517 451.58 216.797 451.58C216.077 451.58 215.417 451.712 214.817 451.976C214.217 452.216 213.701 452.552 213.269 452.984C212.837 453.416 212.489 453.932 212.225 454.532C211.985 455.108 211.865 455.744 211.865 456.44ZM229.183 436.028H232.243V452.588C232.771 451.388 233.515 450.428 234.475 449.708C235.435 448.964 236.671 448.58 238.183 448.556C239.719 448.532 240.943 448.94 241.855 449.78C242.791 450.62 243.283 451.712 243.331 453.056V464H240.235V454.46C240.187 453.692 239.923 453.044 239.443 452.516C238.963 451.964 238.207 451.664 237.175 451.616C236.455 451.616 235.795 451.748 235.195 452.012C234.595 452.252 234.079 452.588 233.647 453.02C233.215 453.452 232.867 453.968 232.603 454.568C232.363 455.168 232.243 455.828 232.243 456.548V464H229.183V436.028ZM255.005 450.968C255.005 449.168 255.353 447.464 256.049 445.856C256.745 444.224 257.693 442.796 258.893 441.572C260.093 440.348 261.497 439.388 263.105 438.692C264.713 437.972 266.441 437.612 268.289 437.612C270.113 437.612 271.829 437.972 273.437 438.692C275.069 439.388 276.497 440.348 277.721 441.572C278.945 442.796 279.905 444.224 280.601 445.856C281.321 447.464 281.681 449.168 281.681 450.968C281.681 452.816 281.357 454.544 280.709 456.152C280.061 457.76 279.161 459.236 278.009 460.58L282.509 460.256V464H271.097C270.617 464.096 270.149 464.168 269.693 464.216C269.237 464.264 268.769 464.288 268.289 464.288C266.441 464.288 264.713 463.94 263.105 463.244C261.497 462.548 260.093 461.6 258.893 460.4C257.693 459.176 256.745 457.76 256.049 456.152C255.353 454.544 255.005 452.816 255.005 450.968ZM258.929 451.004C258.929 452.324 259.169 453.572 259.649 454.748C260.153 455.9 260.825 456.908 261.665 457.772C262.529 458.636 263.537 459.32 264.689 459.824C265.841 460.328 267.077 460.58 268.397 460.58C269.693 460.58 270.905 460.328 272.033 459.824C273.185 459.32 274.181 458.636 275.021 457.772C275.885 456.908 276.557 455.9 277.037 454.748C277.541 453.572 277.793 452.312 277.793 450.968C277.793 449.648 277.541 448.412 277.037 447.26C276.533 446.084 275.849 445.064 274.985 444.2C274.145 443.336 273.149 442.652 271.997 442.148C270.845 441.644 269.621 441.392 268.325 441.392C267.029 441.392 265.805 441.644 264.653 442.148C263.501 442.652 262.505 443.336 261.665 444.2C260.825 445.064 260.153 446.084 259.649 447.26C259.169 448.436 258.929 449.684 258.929 451.004ZM298.98 464.324H296.388L296.028 460.148C295.476 461.372 294.696 462.38 293.688 463.172C292.704 463.964 291.444 464.36 289.908 464.36C288.372 464.36 287.148 463.952 286.236 463.136C285.348 462.296 284.88 461.204 284.832 459.86V448.952H287.892V458.492C287.94 459.236 288.204 459.872 288.684 460.4C289.188 460.928 289.956 461.228 290.988 461.3C291.708 461.3 292.368 461.18 292.968 460.94C293.568 460.676 294.084 460.328 294.516 459.896C294.948 459.464 295.284 458.948 295.524 458.348C295.764 457.748 295.884 457.088 295.884 456.368V448.952H298.98V464.324ZM302.249 456.62C302.249 455.516 302.453 454.484 302.861 453.524C303.293 452.54 303.869 451.688 304.589 450.968C305.309 450.224 306.137 449.636 307.073 449.204C308.033 448.772 309.053 448.556 310.133 448.556C310.853 448.556 311.513 448.652 312.113 448.844C312.713 449.012 313.229 449.228 313.661 449.492C314.093 449.756 314.441 450.032 314.705 450.32C314.969 450.608 315.149 450.86 315.245 451.076L315.389 448.952H318.341V464H315.245V462.092C315.125 462.284 314.933 462.512 314.669 462.776C314.405 463.04 314.057 463.292 313.625 463.532C313.217 463.748 312.725 463.94 312.149 464.108C311.573 464.276 310.913 464.36 310.169 464.36C309.017 464.36 307.949 464.156 306.965 463.748C306.005 463.316 305.177 462.752 304.481 462.056C303.785 461.336 303.233 460.508 302.825 459.572C302.441 458.636 302.249 457.652 302.249 456.62ZM305.345 456.44C305.345 457.136 305.465 457.784 305.705 458.384C305.969 458.984 306.317 459.5 306.749 459.932C307.181 460.364 307.697 460.712 308.297 460.976C308.897 461.216 309.557 461.336 310.277 461.336C310.997 461.336 311.657 461.216 312.257 460.976C312.881 460.712 313.409 460.364 313.841 459.932C314.297 459.476 314.645 458.96 314.885 458.384C315.125 457.784 315.245 457.136 315.245 456.44C315.245 455.744 315.125 455.108 314.885 454.532C314.645 453.932 314.297 453.416 313.841 452.984C313.409 452.552 312.881 452.216 312.257 451.976C311.657 451.712 310.997 451.58 310.277 451.58C309.557 451.58 308.897 451.712 308.297 451.976C307.697 452.216 307.181 452.552 306.749 452.984C306.317 453.416 305.969 453.932 305.705 454.532C305.465 455.108 305.345 455.744 305.345 456.44ZM325.76 464H322.7V436.028H325.76V464ZM329.721 443.192C329.721 442.616 329.925 442.136 330.333 441.752C330.765 441.368 331.221 441.176 331.701 441.176C332.181 441.176 332.625 441.368 333.033 441.752C333.441 442.136 333.645 442.616 333.645 443.192C333.645 443.768 333.441 444.248 333.033 444.632C332.625 444.992 332.181 445.172 331.701 445.172C331.221 445.172 330.765 444.992 330.333 444.632C329.925 444.248 329.721 443.768 329.721 443.192ZM333.177 464H330.117V448.952H333.177V464ZM338.796 442.328H341.856V448.988H345.888V451.724H341.856V464H338.796V451.724H336.096V448.988H338.796V442.328ZM352.573 471.236H349.477C349.813 470.54 350.125 469.868 350.413 469.22C350.725 468.596 351.025 467.948 351.313 467.276C351.625 466.628 351.937 465.944 352.249 465.224C352.561 464.528 352.909 463.772 353.293 462.956C352.741 461.876 352.177 460.748 351.601 459.572C351.025 458.372 350.449 457.172 349.873 455.972C349.297 454.772 348.721 453.572 348.145 452.372C347.593 451.172 347.041 450.032 346.489 448.952H349.837C350.701 450.656 351.409 452.096 351.961 453.272C352.537 454.448 353.005 455.468 353.365 456.332C353.749 457.172 354.049 457.892 354.265 458.492C354.505 459.092 354.709 459.644 354.877 460.148C355.069 459.644 355.273 459.092 355.489 458.492C355.729 457.892 356.029 457.172 356.389 456.332C356.773 455.468 357.241 454.448 357.793 453.272C358.369 452.096 359.089 450.656 359.953 448.952H363.301L352.573 471.236ZM375.757 437.9C375.925 438.308 376.201 438.98 376.585 439.916C376.969 440.828 377.401 441.872 377.881 443.048C378.385 444.224 378.901 445.472 379.429 446.792C379.981 448.112 380.497 449.36 380.977 450.536C381.457 451.712 381.889 452.768 382.273 453.704C382.657 454.616 382.933 455.276 383.101 455.684C383.125 455.732 383.185 455.9 383.281 456.188C383.377 456.476 383.449 456.728 383.497 456.944L383.857 455.684C384.025 455.276 384.301 454.616 384.685 453.704C385.069 452.768 385.501 451.712 385.981 450.536C386.461 449.36 386.965 448.112 387.493 446.792C388.045 445.472 388.561 444.224 389.041 443.048C389.545 441.872 389.989 440.828 390.373 439.916C390.757 438.98 391.033 438.308 391.201 437.9H395.089C394.945 438.236 394.681 438.848 394.297 439.736C393.937 440.6 393.493 441.656 392.965 442.904C392.437 444.152 391.849 445.52 391.201 447.008C390.577 448.496 389.929 450.008 389.257 451.544C388.609 453.08 387.961 454.592 387.313 456.08C386.689 457.568 386.113 458.936 385.585 460.184C385.081 461.432 384.637 462.5 384.253 463.388C383.893 464.252 383.641 464.852 383.497 465.188L371.869 437.9H375.757ZM395.639 443.192C395.639 442.616 395.843 442.136 396.251 441.752C396.683 441.368 397.139 441.176 397.619 441.176C398.099 441.176 398.543 441.368 398.951 441.752C399.359 442.136 399.563 442.616 399.563 443.192C399.563 443.768 399.359 444.248 398.951 444.632C398.543 444.992 398.099 445.172 397.619 445.172C397.139 445.172 396.683 444.992 396.251 444.632C395.843 444.248 395.639 443.768 395.639 443.192ZM399.095 464H396.035V448.952H399.095V464ZM402.41 456.476C402.41 455.3 402.602 454.232 402.986 453.272C403.394 452.288 403.946 451.448 404.642 450.752C405.338 450.056 406.154 449.516 407.09 449.132C408.05 448.748 409.082 448.556 410.186 448.556C410.93 448.556 411.59 448.652 412.166 448.844C412.766 449.012 413.27 449.228 413.678 449.492C414.11 449.732 414.47 450.008 414.758 450.32C415.046 450.632 415.262 450.908 415.406 451.148V436.028H418.502V464H415.406V462.884C415.406 462.74 415.418 462.584 415.442 462.416C415.466 462.224 415.478 462.068 415.478 461.948C415.238 462.236 414.95 462.524 414.614 462.812C414.302 463.076 413.93 463.328 413.498 463.568C413.066 463.808 412.562 464 411.986 464.144C411.434 464.288 410.798 464.36 410.078 464.36C408.878 464.36 407.798 464.156 406.838 463.748C405.902 463.316 405.098 462.752 404.426 462.056C403.778 461.336 403.274 460.496 402.914 459.536C402.578 458.576 402.41 457.556 402.41 456.476ZM405.506 456.44C405.506 457.136 405.626 457.784 405.866 458.384C406.13 458.984 406.478 459.5 406.91 459.932C407.342 460.364 407.858 460.712 408.458 460.976C409.058 461.216 409.718 461.336 410.438 461.336C411.158 461.336 411.818 461.216 412.418 460.976C413.042 460.712 413.57 460.364 414.002 459.932C414.458 459.476 414.806 458.96 415.046 458.384C415.286 457.784 415.406 457.136 415.406 456.44C415.406 455.744 415.286 455.108 415.046 454.532C414.806 453.932 414.458 453.416 414.002 452.984C413.57 452.552 413.042 452.216 412.418 451.976C411.818 451.712 411.158 451.58 410.438 451.58C409.718 451.58 409.058 451.712 408.458 451.976C407.858 452.216 407.342 452.552 406.91 452.984C406.478 453.416 406.13 453.932 405.866 454.532C405.626 455.108 405.506 455.744 405.506 456.44ZM435.568 462.236C434.848 462.884 433.972 463.4 432.94 463.784C431.908 464.168 430.852 464.36 429.772 464.36C428.668 464.36 427.624 464.156 426.64 463.748C425.68 463.316 424.84 462.752 424.12 462.056C423.4 461.336 422.824 460.496 422.392 459.536C421.984 458.576 421.78 457.556 421.78 456.476C421.78 455.396 421.984 454.376 422.392 453.416C422.824 452.456 423.4 451.616 424.12 450.896C424.84 450.176 425.668 449.612 426.604 449.204C427.564 448.772 428.584 448.556 429.664 448.556C431.368 448.556 432.844 449.072 434.092 450.104C435.364 451.112 436.276 452.444 436.828 454.1C436.084 454.364 435.232 454.688 434.272 455.072C433.312 455.456 432.316 455.864 431.284 456.296C430.252 456.704 429.22 457.112 428.188 457.52C427.156 457.928 426.196 458.3 425.308 458.636C425.716 459.452 426.304 460.112 427.072 460.616C427.864 461.096 428.74 461.336 429.7 461.336C430.348 461.336 430.996 461.216 431.644 460.976C432.316 460.736 432.856 460.412 433.264 460.004L435.568 462.236ZM432.976 453.38C432.688 452.78 432.232 452.336 431.608 452.048C430.984 451.736 430.348 451.58 429.7 451.58C429.004 451.58 428.356 451.712 427.756 451.976C427.18 452.24 426.676 452.6 426.244 453.056C425.812 453.488 425.464 453.992 425.2 454.568C424.96 455.144 424.84 455.732 424.84 456.332C424.84 456.452 424.84 456.536 424.84 456.584C424.864 456.632 424.876 456.668 424.876 456.692C425.5 456.452 426.172 456.188 426.892 455.9C427.636 455.588 428.368 455.288 429.088 455C429.808 454.688 430.504 454.4 431.176 454.136C431.848 453.848 432.448 453.596 432.976 453.38ZM438.444 456.44C438.444 455.36 438.648 454.34 439.056 453.38C439.488 452.42 440.064 451.592 440.784 450.896C441.504 450.176 442.344 449.612 443.304 449.204C444.288 448.772 445.344 448.556 446.472 448.556C447.6 448.556 448.644 448.772 449.604 449.204C450.588 449.612 451.428 450.176 452.124 450.896C452.844 451.592 453.396 452.42 453.78 453.38C454.188 454.34 454.392 455.36 454.392 456.44C454.392 457.52 454.188 458.54 453.78 459.5C453.396 460.46 452.844 461.3 452.124 462.02C451.428 462.74 450.588 463.316 449.604 463.748C448.644 464.156 447.588 464.36 446.436 464.36C445.332 464.36 444.288 464.168 443.304 463.784C442.344 463.4 441.504 462.86 440.784 462.164C440.064 461.468 439.488 460.64 439.056 459.68C438.648 458.696 438.444 457.616 438.444 456.44ZM441.504 456.476C441.504 457.148 441.624 457.784 441.864 458.384C442.128 458.96 442.476 459.476 442.908 459.932C443.364 460.364 443.88 460.712 444.456 460.976C445.056 461.216 445.692 461.336 446.364 461.336C447.036 461.336 447.672 461.216 448.272 460.976C448.872 460.712 449.388 460.364 449.82 459.932C450.276 459.476 450.636 458.96 450.9 458.384C451.164 457.784 451.296 457.148 451.296 456.476C451.296 455.804 451.164 455.168 450.9 454.568C450.636 453.968 450.276 453.452 449.82 453.02C449.388 452.564 448.872 452.216 448.272 451.976C447.672 451.712 447.036 451.58 446.364 451.58C445.692 451.58 445.056 451.712 444.456 451.976C443.88 452.216 443.364 452.564 442.908 453.02C442.476 453.452 442.128 453.968 441.864 454.568C441.624 455.168 441.504 455.804 441.504 456.476ZM163.522 510.62C163.522 509.516 163.726 508.484 164.134 507.524C164.566 506.54 165.142 505.688 165.862 504.968C166.582 504.224 167.41 503.636 168.346 503.204C169.306 502.772 170.326 502.556 171.406 502.556C172.126 502.556 172.786 502.652 173.386 502.844C173.986 503.012 174.502 503.228 174.934 503.492C175.366 503.756 175.714 504.032 175.978 504.32C176.242 504.608 176.422 504.86 176.518 505.076L176.662 502.952H179.614V518H176.518V516.092C176.398 516.284 176.206 516.512 175.942 516.776C175.678 517.04 175.33 517.292 174.898 517.532C174.49 517.748 173.998 517.94 173.422 518.108C172.846 518.276 172.186 518.36 171.442 518.36C170.29 518.36 169.222 518.156 168.238 517.748C167.278 517.316 166.45 516.752 165.754 516.056C165.058 515.336 164.506 514.508 164.098 513.572C163.714 512.636 163.522 511.652 163.522 510.62ZM166.618 510.44C166.618 511.136 166.738 511.784 166.978 512.384C167.242 512.984 167.59 513.5 168.022 513.932C168.454 514.364 168.97 514.712 169.57 514.976C170.17 515.216 170.83 515.336 171.55 515.336C172.27 515.336 172.93 515.216 173.53 514.976C174.154 514.712 174.682 514.364 175.114 513.932C175.57 513.476 175.918 512.96 176.158 512.384C176.398 511.784 176.518 511.136 176.518 510.44C176.518 509.744 176.398 509.108 176.158 508.532C175.918 507.932 175.57 507.416 175.114 506.984C174.682 506.552 174.154 506.216 173.53 505.976C172.93 505.712 172.27 505.58 171.55 505.58C170.83 505.58 170.17 505.712 169.57 505.976C168.97 506.216 168.454 506.552 168.022 506.984C167.59 507.416 167.242 507.932 166.978 508.532C166.738 509.108 166.618 509.744 166.618 510.44ZM183.937 502.952H186.637C186.685 503.696 186.721 504.38 186.745 505.004C186.793 505.604 186.841 506.204 186.889 506.804C187.441 505.508 188.221 504.476 189.229 503.708C190.261 502.94 191.521 502.556 193.009 502.556C194.521 502.556 195.733 502.976 196.645 503.816C197.557 504.656 198.037 505.736 198.085 507.056V518H194.989V508.46C194.941 507.692 194.677 507.044 194.197 506.516C193.717 505.964 192.961 505.664 191.929 505.616C191.209 505.616 190.549 505.748 189.949 506.012C189.349 506.252 188.833 506.588 188.401 507.02C187.969 507.452 187.621 507.968 187.357 508.568C187.117 509.168 186.997 509.828 186.997 510.548V518H183.937V502.952ZM206.148 525.236H203.052C203.388 524.54 203.7 523.868 203.988 523.22C204.3 522.596 204.6 521.948 204.888 521.276C205.2 520.628 205.512 519.944 205.824 519.224C206.136 518.528 206.484 517.772 206.868 516.956C206.316 515.876 205.752 514.748 205.176 513.572C204.6 512.372 204.024 511.172 203.448 509.972C202.872 508.772 202.296 507.572 201.72 506.372C201.168 505.172 200.616 504.032 200.064 502.952H203.412C204.276 504.656 204.984 506.096 205.536 507.272C206.112 508.448 206.58 509.468 206.94 510.332C207.324 511.172 207.624 511.892 207.84 512.492C208.08 513.092 208.284 513.644 208.452 514.148C208.644 513.644 208.848 513.092 209.064 512.492C209.304 511.892 209.604 511.172 209.964 510.332C210.348 509.468 210.816 508.448 211.368 507.272C211.944 506.096 212.664 504.656 213.528 502.952H216.876L206.148 525.236ZM227.442 505.364L226.326 502.952H228.99C229.686 504.464 230.274 505.772 230.754 506.876C231.234 507.956 231.642 508.904 231.978 509.72C232.314 510.512 232.59 511.184 232.806 511.736C233.022 512.288 233.202 512.756 233.346 513.14C233.49 512.42 233.658 511.772 233.85 511.196C234.066 510.596 234.33 509.936 234.642 509.216C234.954 508.472 235.326 507.62 235.758 506.66C236.214 505.676 236.754 504.44 237.378 502.952H240.474L233.346 518.9C232.914 518.012 232.506 517.136 232.122 516.272C231.762 515.384 231.402 514.508 231.042 513.644C230.706 512.78 230.346 511.916 229.962 511.052C229.602 510.188 229.206 509.3 228.774 508.388L224.202 518.9L217.398 502.952H220.494C221.118 504.44 221.634 505.676 222.042 506.66C222.45 507.644 222.786 508.496 223.05 509.216C223.338 509.936 223.566 510.596 223.734 511.196C223.902 511.772 224.058 512.42 224.202 513.14C224.298 512.852 224.406 512.528 224.526 512.168C224.67 511.808 224.85 511.352 225.066 510.8C225.306 510.224 225.618 509.504 226.002 508.64C226.386 507.776 226.866 506.684 227.442 505.364ZM242.789 490.028H245.849V506.588C246.377 505.388 247.121 504.428 248.081 503.708C249.041 502.964 250.277 502.58 251.789 502.556C253.325 502.532 254.549 502.94 255.461 503.78C256.397 504.62 256.889 505.712 256.937 507.056V518H253.841V508.46C253.793 507.692 253.529 507.044 253.049 506.516C252.569 505.964 251.813 505.664 250.781 505.616C250.061 505.616 249.401 505.748 248.801 506.012C248.201 506.252 247.685 506.588 247.253 507.02C246.821 507.452 246.473 507.968 246.209 508.568C245.969 509.168 245.849 509.828 245.849 510.548V518H242.789V490.028ZM273.849 516.236C273.129 516.884 272.253 517.4 271.221 517.784C270.189 518.168 269.133 518.36 268.053 518.36C266.949 518.36 265.905 518.156 264.921 517.748C263.961 517.316 263.121 516.752 262.401 516.056C261.681 515.336 261.105 514.496 260.673 513.536C260.265 512.576 260.061 511.556 260.061 510.476C260.061 509.396 260.265 508.376 260.673 507.416C261.105 506.456 261.681 505.616 262.401 504.896C263.121 504.176 263.949 503.612 264.885 503.204C265.845 502.772 266.865 502.556 267.945 502.556C269.649 502.556 271.125 503.072 272.373 504.104C273.645 505.112 274.557 506.444 275.109 508.1C274.365 508.364 273.513 508.688 272.553 509.072C271.593 509.456 270.597 509.864 269.565 510.296C268.533 510.704 267.501 511.112 266.469 511.52C265.437 511.928 264.477 512.3 263.589 512.636C263.997 513.452 264.585 514.112 265.353 514.616C266.145 515.096 267.021 515.336 267.981 515.336C268.629 515.336 269.277 515.216 269.925 514.976C270.597 514.736 271.137 514.412 271.545 514.004L273.849 516.236ZM271.257 507.38C270.969 506.78 270.513 506.336 269.889 506.048C269.265 505.736 268.629 505.58 267.981 505.58C267.285 505.58 266.637 505.712 266.037 505.976C265.461 506.24 264.957 506.6 264.525 507.056C264.093 507.488 263.745 507.992 263.481 508.568C263.241 509.144 263.121 509.732 263.121 510.332C263.121 510.452 263.121 510.536 263.121 510.584C263.145 510.632 263.157 510.668 263.157 510.692C263.781 510.452 264.453 510.188 265.173 509.9C265.917 509.588 266.649 509.288 267.369 509C268.089 508.688 268.785 508.4 269.457 508.136C270.129 507.848 270.729 507.596 271.257 507.38ZM286.049 506.516C285.377 506.516 284.729 506.612 284.105 506.804C283.481 506.972 282.917 507.236 282.413 507.596C281.933 507.956 281.549 508.412 281.261 508.964C280.973 509.492 280.829 510.104 280.829 510.8V518H277.769V502.952H280.469C280.517 503.696 280.553 504.38 280.577 505.004C280.625 505.604 280.673 506.204 280.721 506.804C281.033 506.156 281.441 505.568 281.945 505.04C282.449 504.512 282.989 504.068 283.565 503.708C284.141 503.348 284.705 503.072 285.257 502.88C285.809 502.664 286.301 502.556 286.733 502.556L286.049 506.516ZM301.412 516.236C300.692 516.884 299.816 517.4 298.784 517.784C297.752 518.168 296.696 518.36 295.616 518.36C294.512 518.36 293.468 518.156 292.484 517.748C291.524 517.316 290.684 516.752 289.964 516.056C289.244 515.336 288.668 514.496 288.236 513.536C287.828 512.576 287.624 511.556 287.624 510.476C287.624 509.396 287.828 508.376 288.236 507.416C288.668 506.456 289.244 505.616 289.964 504.896C290.684 504.176 291.512 503.612 292.448 503.204C293.408 502.772 294.428 502.556 295.508 502.556C297.212 502.556 298.688 503.072 299.936 504.104C301.208 505.112 302.12 506.444 302.672 508.1C301.928 508.364 301.076 508.688 300.116 509.072C299.156 509.456 298.16 509.864 297.128 510.296C296.096 510.704 295.064 511.112 294.032 511.52C293 511.928 292.04 512.3 291.152 512.636C291.56 513.452 292.148 514.112 292.916 514.616C293.708 515.096 294.584 515.336 295.544 515.336C296.192 515.336 296.84 515.216 297.488 514.976C298.16 514.736 298.7 514.412 299.108 514.004L301.412 516.236ZM298.82 507.38C298.532 506.78 298.076 506.336 297.452 506.048C296.828 505.736 296.192 505.58 295.544 505.58C294.848 505.58 294.2 505.712 293.6 505.976C293.024 506.24 292.52 506.6 292.088 507.056C291.656 507.488 291.308 507.992 291.044 508.568C290.804 509.144 290.684 509.732 290.684 510.332C290.684 510.452 290.684 510.536 290.684 510.584C290.708 510.632 290.72 510.668 290.72 510.692C291.344 510.452 292.016 510.188 292.736 509.9C293.48 509.588 294.212 509.288 294.932 509C295.652 508.688 296.348 508.4 297.02 508.136C297.692 507.848 298.292 507.596 298.82 507.38ZM326.373 516.236C325.653 516.884 324.777 517.4 323.745 517.784C322.713 518.168 321.657 518.36 320.577 518.36C319.473 518.36 318.429 518.156 317.445 517.748C316.485 517.316 315.645 516.752 314.925 516.056C314.205 515.336 313.629 514.496 313.197 513.536C312.789 512.576 312.585 511.556 312.585 510.476C312.585 509.396 312.789 508.376 313.197 507.416C313.629 506.456 314.205 505.616 314.925 504.896C315.645 504.176 316.473 503.612 317.409 503.204C318.369 502.772 319.389 502.556 320.469 502.556C322.173 502.556 323.649 503.072 324.897 504.104C326.169 505.112 327.081 506.444 327.633 508.1C326.889 508.364 326.037 508.688 325.077 509.072C324.117 509.456 323.121 509.864 322.089 510.296C321.057 510.704 320.025 511.112 318.993 511.52C317.961 511.928 317.001 512.3 316.113 512.636C316.521 513.452 317.109 514.112 317.877 514.616C318.669 515.096 319.545 515.336 320.505 515.336C321.153 515.336 321.801 515.216 322.449 514.976C323.121 514.736 323.661 514.412 324.069 514.004L326.373 516.236ZM323.781 507.38C323.493 506.78 323.037 506.336 322.413 506.048C321.789 505.736 321.153 505.58 320.505 505.58C319.809 505.58 319.161 505.712 318.561 505.976C317.985 506.24 317.481 506.6 317.049 507.056C316.617 507.488 316.269 507.992 316.005 508.568C315.765 509.144 315.645 509.732 315.645 510.332C315.645 510.452 315.645 510.536 315.645 510.584C315.669 510.632 315.681 510.668 315.681 510.692C316.305 510.452 316.977 510.188 317.697 509.9C318.441 509.588 319.173 509.288 319.893 509C320.613 508.688 321.309 508.4 321.981 508.136C322.653 507.848 323.253 507.596 323.781 507.38ZM335.95 518.9C334.534 516.212 333.202 513.56 331.954 510.944C330.73 508.304 329.434 505.64 328.066 502.952H331.414C332.278 504.656 332.962 506.048 333.466 507.128C333.994 508.208 334.414 509.108 334.726 509.828C335.038 510.548 335.278 511.16 335.446 511.664C335.614 512.144 335.782 512.636 335.95 513.14C336.142 512.636 336.322 512.144 336.49 511.664C336.682 511.16 336.922 510.548 337.21 509.828C337.522 509.108 337.93 508.208 338.434 507.128C338.962 506.048 339.658 504.656 340.522 502.952H343.87C342.502 505.64 341.182 508.304 339.91 510.944C338.638 513.56 337.318 516.212 335.95 518.9ZM358.33 516.236C357.61 516.884 356.734 517.4 355.702 517.784C354.67 518.168 353.614 518.36 352.534 518.36C351.43 518.36 350.386 518.156 349.402 517.748C348.442 517.316 347.602 516.752 346.882 516.056C346.162 515.336 345.586 514.496 345.154 513.536C344.746 512.576 344.542 511.556 344.542 510.476C344.542 509.396 344.746 508.376 345.154 507.416C345.586 506.456 346.162 505.616 346.882 504.896C347.602 504.176 348.43 503.612 349.366 503.204C350.326 502.772 351.346 502.556 352.426 502.556C354.13 502.556 355.606 503.072 356.854 504.104C358.126 505.112 359.038 506.444 359.59 508.1C358.846 508.364 357.994 508.688 357.034 509.072C356.074 509.456 355.078 509.864 354.046 510.296C353.014 510.704 351.982 511.112 350.95 511.52C349.918 511.928 348.958 512.3 348.07 512.636C348.478 513.452 349.066 514.112 349.834 514.616C350.626 515.096 351.502 515.336 352.462 515.336C353.11 515.336 353.758 515.216 354.406 514.976C355.078 514.736 355.618 514.412 356.026 514.004L358.33 516.236ZM355.738 507.38C355.45 506.78 354.994 506.336 354.37 506.048C353.746 505.736 353.11 505.58 352.462 505.58C351.766 505.58 351.118 505.712 350.518 505.976C349.942 506.24 349.438 506.6 349.006 507.056C348.574 507.488 348.226 507.992 347.962 508.568C347.722 509.144 347.602 509.732 347.602 510.332C347.602 510.452 347.602 510.536 347.602 510.584C347.626 510.632 347.638 510.668 347.638 510.692C348.262 510.452 348.934 510.188 349.654 509.9C350.398 509.588 351.13 509.288 351.85 509C352.57 508.688 353.266 508.4 353.938 508.136C354.61 507.848 355.21 507.596 355.738 507.38ZM370.53 506.516C369.858 506.516 369.21 506.612 368.586 506.804C367.962 506.972 367.398 507.236 366.894 507.596C366.414 507.956 366.03 508.412 365.742 508.964C365.454 509.492 365.31 510.104 365.31 510.8V518H362.25V502.952H364.95C364.998 503.696 365.034 504.38 365.058 505.004C365.106 505.604 365.154 506.204 365.202 506.804C365.514 506.156 365.922 505.568 366.426 505.04C366.93 504.512 367.47 504.068 368.046 503.708C368.622 503.348 369.186 503.072 369.738 502.88C370.29 502.664 370.782 502.556 371.214 502.556L370.53 506.516ZM377.57 525.236H374.474C374.81 524.54 375.122 523.868 375.41 523.22C375.722 522.596 376.022 521.948 376.31 521.276C376.622 520.628 376.934 519.944 377.246 519.224C377.558 518.528 377.906 517.772 378.29 516.956C377.738 515.876 377.174 514.748 376.598 513.572C376.022 512.372 375.446 511.172 374.87 509.972C374.294 508.772 373.718 507.572 373.142 506.372C372.59 505.172 372.038 504.032 371.486 502.952H374.834C375.698 504.656 376.406 506.096 376.958 507.272C377.534 508.448 378.002 509.468 378.362 510.332C378.746 511.172 379.046 511.892 379.262 512.492C379.502 513.092 379.706 513.644 379.874 514.148C380.066 513.644 380.27 513.092 380.486 512.492C380.726 511.892 381.026 511.172 381.386 510.332C381.77 509.468 382.238 508.448 382.79 507.272C383.366 506.096 384.086 504.656 384.95 502.952H388.298L377.57 525.236ZM398.864 505.364L397.748 502.952H400.412C401.108 504.464 401.696 505.772 402.176 506.876C402.656 507.956 403.064 508.904 403.4 509.72C403.736 510.512 404.012 511.184 404.228 511.736C404.444 512.288 404.624 512.756 404.768 513.14C404.912 512.42 405.08 511.772 405.272 511.196C405.488 510.596 405.752 509.936 406.064 509.216C406.376 508.472 406.748 507.62 407.18 506.66C407.636 505.676 408.176 504.44 408.8 502.952H411.896L404.768 518.9C404.336 518.012 403.928 517.136 403.544 516.272C403.184 515.384 402.824 514.508 402.464 513.644C402.128 512.78 401.768 511.916 401.384 511.052C401.024 510.188 400.628 509.3 400.196 508.388L395.624 518.9L388.82 502.952H391.916C392.54 504.44 393.056 505.676 393.464 506.66C393.872 507.644 394.208 508.496 394.472 509.216C394.76 509.936 394.988 510.596 395.156 511.196C395.324 511.772 395.48 512.42 395.624 513.14C395.72 512.852 395.828 512.528 395.948 512.168C396.092 511.808 396.272 511.352 396.488 510.8C396.728 510.224 397.04 509.504 397.424 508.64C397.808 507.776 398.288 506.684 398.864 505.364ZM414.211 490.028H417.271V506.588C417.799 505.388 418.543 504.428 419.503 503.708C420.463 502.964 421.699 502.58 423.211 502.556C424.747 502.532 425.971 502.94 426.883 503.78C427.819 504.62 428.311 505.712 428.359 507.056V518H425.263V508.46C425.215 507.692 424.951 507.044 424.471 506.516C423.991 505.964 423.235 505.664 422.203 505.616C421.483 505.616 420.823 505.748 420.223 506.012C419.623 506.252 419.107 506.588 418.675 507.02C418.243 507.452 417.895 507.968 417.631 508.568C417.391 509.168 417.271 509.828 417.271 510.548V518H414.211V490.028ZM445.271 516.236C444.551 516.884 443.675 517.4 442.643 517.784C441.611 518.168 440.555 518.36 439.475 518.36C438.371 518.36 437.327 518.156 436.343 517.748C435.383 517.316 434.543 516.752 433.823 516.056C433.103 515.336 432.527 514.496 432.095 513.536C431.687 512.576 431.483 511.556 431.483 510.476C431.483 509.396 431.687 508.376 432.095 507.416C432.527 506.456 433.103 505.616 433.823 504.896C434.543 504.176 435.371 503.612 436.307 503.204C437.267 502.772 438.287 502.556 439.367 502.556C441.071 502.556 442.547 503.072 443.795 504.104C445.067 505.112 445.979 506.444 446.531 508.1C445.787 508.364 444.935 508.688 443.975 509.072C443.015 509.456 442.019 509.864 440.987 510.296C439.955 510.704 438.923 511.112 437.891 511.52C436.859 511.928 435.899 512.3 435.011 512.636C435.419 513.452 436.007 514.112 436.775 514.616C437.567 515.096 438.443 515.336 439.403 515.336C440.051 515.336 440.699 515.216 441.347 514.976C442.019 514.736 442.559 514.412 442.967 514.004L445.271 516.236ZM442.679 507.38C442.391 506.78 441.935 506.336 441.311 506.048C440.687 505.736 440.051 505.58 439.403 505.58C438.707 505.58 438.059 505.712 437.459 505.976C436.883 506.24 436.379 506.6 435.947 507.056C435.515 507.488 435.167 507.992 434.903 508.568C434.663 509.144 434.543 509.732 434.543 510.332C434.543 510.452 434.543 510.536 434.543 510.584C434.567 510.632 434.579 510.668 434.579 510.692C435.203 510.452 435.875 510.188 436.595 509.9C437.339 509.588 438.071 509.288 438.791 509C439.511 508.688 440.207 508.4 440.879 508.136C441.551 507.848 442.151 507.596 442.679 507.38ZM457.471 506.516C456.799 506.516 456.151 506.612 455.527 506.804C454.903 506.972 454.339 507.236 453.835 507.596C453.355 507.956 452.971 508.412 452.683 508.964C452.395 509.492 452.251 510.104 452.251 510.8V518H449.191V502.952H451.891C451.939 503.696 451.975 504.38 451.999 505.004C452.047 505.604 452.095 506.204 452.143 506.804C452.455 506.156 452.863 505.568 453.367 505.04C453.871 504.512 454.411 504.068 454.987 503.708C455.563 503.348 456.127 503.072 456.679 502.88C457.231 502.664 457.723 502.556 458.155 502.556L457.471 506.516ZM472.834 516.236C472.114 516.884 471.238 517.4 470.206 517.784C469.174 518.168 468.118 518.36 467.038 518.36C465.934 518.36 464.89 518.156 463.906 517.748C462.946 517.316 462.106 516.752 461.386 516.056C460.666 515.336 460.09 514.496 459.658 513.536C459.25 512.576 459.046 511.556 459.046 510.476C459.046 509.396 459.25 508.376 459.658 507.416C460.09 506.456 460.666 505.616 461.386 504.896C462.106 504.176 462.934 503.612 463.87 503.204C464.83 502.772 465.85 502.556 466.93 502.556C468.634 502.556 470.11 503.072 471.358 504.104C472.63 505.112 473.542 506.444 474.094 508.1C473.35 508.364 472.498 508.688 471.538 509.072C470.578 509.456 469.582 509.864 468.55 510.296C467.518 510.704 466.486 511.112 465.454 511.52C464.422 511.928 463.462 512.3 462.574 512.636C462.982 513.452 463.57 514.112 464.338 514.616C465.13 515.096 466.006 515.336 466.966 515.336C467.614 515.336 468.262 515.216 468.91 514.976C469.582 514.736 470.122 514.412 470.53 514.004L472.834 516.236ZM470.242 507.38C469.954 506.78 469.498 506.336 468.874 506.048C468.25 505.736 467.614 505.58 466.966 505.58C466.27 505.58 465.622 505.712 465.022 505.976C464.446 506.24 463.942 506.6 463.51 507.056C463.078 507.488 462.73 507.992 462.466 508.568C462.226 509.144 462.106 509.732 462.106 510.332C462.106 510.452 462.106 510.536 462.106 510.584C462.13 510.632 462.142 510.668 462.142 510.692C462.766 510.452 463.438 510.188 464.158 509.9C464.902 509.588 465.634 509.288 466.354 509C467.074 508.688 467.77 508.4 468.442 508.136C469.114 507.848 469.714 507.596 470.242 507.38Z" fill="white"/>
<path d="M263.022 75C263.955 77.2667 265.488 81 267.622 86.2C269.755 91.2667 272.155 97.0667 274.822 103.6C277.622 110.133 280.488 117.067 283.422 124.4C286.488 131.733 289.355 138.667 292.022 145.2C294.688 151.733 297.088 157.6 299.222 162.8C301.355 167.867 302.888 171.533 303.822 173.8C303.955 174.067 304.288 175 304.822 176.6C305.355 178.2 305.755 179.6 306.022 180.8L308.022 173.8C308.955 171.533 310.488 167.867 312.622 162.8C314.755 157.6 317.155 151.733 319.822 145.2C322.488 138.667 325.288 131.733 328.222 124.4C331.288 117.067 334.155 110.133 336.822 103.6C339.622 97.0667 342.088 91.2667 344.222 86.2C346.355 81 347.888 77.2667 348.822 75H370.422C369.622 76.8667 368.155 80.2667 366.022 85.2C364.022 90 361.555 95.8667 358.622 102.8C355.688 109.733 352.422 117.333 348.822 125.6C345.355 133.867 341.755 142.267 338.022 150.8C334.422 159.333 330.822 167.733 327.222 176C323.755 184.267 320.555 191.867 317.622 198.8C314.822 205.733 312.355 211.667 310.222 216.6C308.222 221.4 306.822 224.733 306.022 226.6L241.422 75H263.022Z" fill="white"/>
<path d="M287.278 75C288.211 77.2667 289.744 81 291.878 86.2C294.011 91.2667 296.411 97.0667 299.078 103.6C301.878 110.133 304.745 117.067 307.678 124.4C310.745 131.733 313.611 138.667 316.278 145.2C318.945 151.733 321.345 157.6 323.478 162.8C325.611 167.867 327.145 171.533 328.078 173.8C328.211 174.067 328.545 175 329.078 176.6C329.611 178.2 330.011 179.6 330.278 180.8L332.278 173.8C333.211 171.533 334.745 167.867 336.878 162.8C339.011 157.6 341.411 151.733 344.078 145.2C346.745 138.667 349.545 131.733 352.478 124.4C355.545 117.067 358.411 110.133 361.078 103.6C363.878 97.0667 366.345 91.2667 368.478 86.2C370.611 81 372.145 77.2667 373.078 75H394.678C393.878 76.8667 392.411 80.2667 390.278 85.2C388.278 90 385.811 95.8667 382.878 102.8C379.945 109.733 376.678 117.333 373.078 125.6C369.611 133.867 366.011 142.267 362.278 150.8C358.678 159.333 355.078 167.733 351.478 176C348.011 184.267 344.811 191.867 341.878 198.8C339.078 205.733 336.611 211.667 334.478 216.6C332.478 221.4 331.078 224.733 330.278 226.6L265.678 75H287.278Z" fill="white"/>
<path d="M429.769 172.434C428.041 176.994 426.193 181.794 424.225 186.834C422.305 191.826 420.385 196.746 418.465 201.594C416.593 206.442 414.817 211.05 413.137 215.418C411.457 219.786 410.041 223.554 408.889 226.722L397.225 197.562C397.081 197.178 396.961 196.89 396.865 196.698C396.769 196.506 396.673 196.218 396.577 195.834C396.577 196.026 396.553 196.218 396.505 196.41C396.457 196.554 396.409 196.722 396.361 196.914C396.313 197.106 396.265 197.298 396.217 197.49C394.585 201.234 392.977 204.906 391.393 208.506C390.721 210.042 390.025 211.626 389.305 213.258C388.585 214.89 387.889 216.522 387.217 218.154C386.545 219.738 385.873 221.274 385.201 222.762C384.577 224.25 384.001 225.594 383.473 226.794C380.017 217.722 376.537 208.674 373.033 199.65C369.529 190.626 366.049 181.554 362.593 172.434H371.449C372.601 175.602 373.777 178.794 374.977 182.01C376.225 185.226 377.377 188.322 378.433 191.298C379.537 194.274 380.521 197.034 381.385 199.578C382.249 202.122 382.921 204.282 383.401 206.058L383.977 208.578C384.025 208.338 384.145 207.954 384.337 207.426C384.529 206.85 384.673 206.442 384.769 206.202C384.817 206.01 384.985 205.578 385.273 204.906C385.561 204.234 385.897 203.442 386.281 202.53C386.665 201.57 387.097 200.538 387.577 199.434C388.057 198.33 388.537 197.202 389.017 196.05C390.169 193.41 391.441 190.482 392.833 187.266C392.017 185.01 391.297 182.898 390.673 180.93C390.097 179.25 389.545 177.594 389.017 175.962C388.537 174.33 388.177 173.154 387.937 172.434H395.497C397.561 177.858 399.481 182.874 401.257 187.482C401.977 189.45 402.697 191.418 403.417 193.386C404.185 195.354 404.881 197.178 405.505 198.858C406.177 200.538 406.753 202.026 407.233 203.322C407.713 204.57 408.049 205.482 408.241 206.058C408.385 206.49 408.481 206.922 408.529 207.354C408.625 207.738 408.721 208.146 408.817 208.578C408.913 208.146 408.985 207.714 409.033 207.282C409.129 206.85 409.225 206.442 409.321 206.058C409.753 204.186 410.425 201.954 411.337 199.362C412.249 196.77 413.257 193.986 414.361 191.01C415.513 188.034 416.713 184.962 417.961 181.794C419.209 178.578 420.409 175.458 421.561 172.434H429.769ZM453.561 220.89C452.121 222.186 450.369 223.218 448.305 223.986C446.241 224.754 444.129 225.138 441.969 225.138C439.761 225.138 437.673 224.73 435.705 223.914C433.785 223.05 432.105 221.922 430.665 220.53C429.225 219.09 428.073 217.41 427.209 215.49C426.393 213.57 425.985 211.53 425.985 209.37C425.985 207.21 426.393 205.17 427.209 203.25C428.073 201.33 429.225 199.65 430.665 198.21C432.105 196.77 433.761 195.642 435.633 194.826C437.553 193.962 439.593 193.53 441.753 193.53C445.161 193.53 448.113 194.562 450.609 196.626C453.153 198.642 454.977 201.306 456.081 204.618C454.593 205.146 452.889 205.794 450.969 206.562C449.049 207.33 447.057 208.146 444.993 209.01C442.929 209.826 440.865 210.642 438.801 211.458C436.737 212.274 434.817 213.018 433.041 213.69C433.857 215.322 435.033 216.642 436.569 217.65C438.153 218.61 439.905 219.09 441.825 219.09C443.121 219.09 444.417 218.85 445.713 218.37C447.057 217.89 448.137 217.242 448.953 216.426L453.561 220.89ZM448.377 203.178C447.801 201.978 446.889 201.09 445.641 200.514C444.393 199.89 443.121 199.578 441.825 199.578C440.433 199.578 439.137 199.842 437.937 200.37C436.785 200.898 435.777 201.618 434.913 202.53C434.049 203.394 433.353 204.402 432.825 205.554C432.345 206.706 432.105 207.882 432.105 209.082C432.105 209.322 432.105 209.49 432.105 209.586C432.153 209.682 432.177 209.754 432.177 209.802C433.425 209.322 434.769 208.794 436.209 208.218C437.697 207.594 439.161 206.994 440.601 206.418C442.041 205.794 443.433 205.218 444.777 204.69C446.121 204.114 447.321 203.61 448.377 203.178ZM459.386 209.37C459.386 207.018 459.77 204.882 460.538 202.962C461.354 200.994 462.458 199.314 463.85 197.922C465.242 196.53 466.874 195.45 468.746 194.682C470.666 193.914 472.73 193.53 474.938 193.53C476.426 193.53 477.746 193.722 478.898 194.106C480.098 194.442 481.106 194.874 481.922 195.402C482.786 195.882 483.506 196.434 484.082 197.058C484.658 197.682 485.09 198.234 485.378 198.714V168.474H491.57V224.418H485.378V222.186C485.378 221.898 485.402 221.586 485.45 221.25C485.498 220.866 485.522 220.554 485.522 220.314C485.042 220.89 484.466 221.466 483.794 222.042C483.17 222.57 482.426 223.074 481.562 223.554C480.698 224.034 479.69 224.418 478.538 224.706C477.434 224.994 476.162 225.138 474.722 225.138C472.322 225.138 470.162 224.73 468.242 223.914C466.37 223.05 464.762 221.922 463.418 220.53C462.122 219.09 461.114 217.41 460.394 215.49C459.722 213.57 459.386 211.53 459.386 209.37ZM465.578 209.298C465.578 210.69 465.818 211.986 466.298 213.186C466.826 214.386 467.522 215.418 468.386 216.282C469.25 217.146 470.282 217.842 471.482 218.37C472.682 218.85 474.002 219.09 475.442 219.09C476.882 219.09 478.202 218.85 479.402 218.37C480.65 217.842 481.706 217.146 482.57 216.282C483.482 215.37 484.178 214.338 484.658 213.186C485.138 211.986 485.378 210.69 485.378 209.298C485.378 207.906 485.138 206.634 484.658 205.482C484.178 204.282 483.482 203.25 482.57 202.386C481.706 201.522 480.65 200.85 479.402 200.37C478.202 199.842 476.882 199.578 475.442 199.578C474.002 199.578 472.682 199.842 471.482 200.37C470.282 200.85 469.25 201.522 468.386 202.386C467.522 203.25 466.826 204.282 466.298 205.482C465.818 206.634 465.578 207.906 465.578 209.298ZM498.126 209.298C498.126 207.138 498.534 205.098 499.35 203.178C500.214 201.258 501.366 199.602 502.806 198.21C504.246 196.77 505.926 195.642 507.846 194.826C509.814 193.962 511.926 193.53 514.182 193.53C516.438 193.53 518.526 193.962 520.446 194.826C522.414 195.642 524.094 196.77 525.486 198.21C526.926 199.602 528.03 201.258 528.798 203.178C529.614 205.098 530.022 207.138 530.022 209.298C530.022 211.458 529.614 213.498 528.798 215.418C528.03 217.338 526.926 219.018 525.486 220.458C524.094 221.898 522.414 223.05 520.446 223.914C518.526 224.73 516.414 225.138 514.11 225.138C511.902 225.138 509.814 224.754 507.846 223.986C505.926 223.218 504.246 222.138 502.806 220.746C501.366 219.354 500.214 217.698 499.35 215.778C498.534 213.81 498.126 211.65 498.126 209.298ZM504.246 209.37C504.246 210.714 504.486 211.986 504.966 213.186C505.494 214.338 506.19 215.37 507.054 216.282C507.966 217.146 508.998 217.842 510.15 218.37C511.35 218.85 512.622 219.09 513.966 219.09C515.31 219.09 516.582 218.85 517.782 218.37C518.982 217.842 520.014 217.146 520.878 216.282C521.79 215.37 522.51 214.338 523.038 213.186C523.566 211.986 523.83 210.714 523.83 209.37C523.83 208.026 523.566 206.754 523.038 205.554C522.51 204.354 521.79 203.322 520.878 202.458C520.014 201.546 518.982 200.85 517.782 200.37C516.582 199.842 515.31 199.578 513.966 199.578C512.622 199.578 511.35 199.842 510.15 200.37C508.998 200.85 507.966 201.546 507.054 202.458C506.19 203.322 505.494 204.354 504.966 205.554C504.486 206.754 504.246 208.026 504.246 209.37Z" fill="white"/>
<path d="M124.138 167.8C124.474 168.616 125.026 169.96 125.794 171.832C126.562 173.656 127.426 175.744 128.386 178.096C129.394 180.448 130.426 182.944 131.482 185.584C132.586 188.224 133.618 190.72 134.578 193.072C135.538 195.424 136.402 197.536 137.17 199.408C137.938 201.232 138.49 202.552 138.826 203.368C138.874 203.464 138.994 203.8 139.186 204.376C139.378 204.952 139.522 205.456 139.618 205.888L140.338 203.368C140.674 202.552 141.226 201.232 141.994 199.408C142.762 197.536 143.626 195.424 144.586 193.072C145.546 190.72 146.554 188.224 147.61 185.584C148.714 182.944 149.746 180.448 150.706 178.096C151.714 175.744 152.602 173.656 153.37 171.832C154.138 169.96 154.69 168.616 155.026 167.8H162.802C162.514 168.472 161.986 169.696 161.218 171.472C160.498 173.2 159.61 175.312 158.554 177.808C157.498 180.304 156.322 183.04 155.026 186.016C153.778 188.992 152.482 192.016 151.138 195.088C149.842 198.16 148.546 201.184 147.25 204.16C146.002 207.136 144.85 209.872 143.794 212.368C142.786 214.864 141.898 217 141.13 218.776C140.41 220.504 139.906 221.704 139.618 222.376L116.362 167.8H124.138ZM185.331 216.472C183.891 217.768 182.139 218.8 180.075 219.568C178.011 220.336 175.899 220.72 173.739 220.72C171.531 220.72 169.443 220.312 167.475 219.496C165.555 218.632 163.875 217.504 162.435 216.112C160.995 214.672 159.843 212.992 158.979 211.072C158.163 209.152 157.755 207.112 157.755 204.952C157.755 202.792 158.163 200.752 158.979 198.832C159.843 196.912 160.995 195.232 162.435 193.792C163.875 192.352 165.531 191.224 167.403 190.408C169.323 189.544 171.363 189.112 173.523 189.112C176.931 189.112 179.883 190.144 182.379 192.208C184.923 194.224 186.747 196.888 187.851 200.2C186.363 200.728 184.659 201.376 182.739 202.144C180.819 202.912 178.827 203.728 176.763 204.592C174.699 205.408 172.635 206.224 170.571 207.04C168.507 207.856 166.587 208.6 164.811 209.272C165.627 210.904 166.803 212.224 168.339 213.232C169.923 214.192 171.675 214.672 173.595 214.672C174.891 214.672 176.187 214.432 177.483 213.952C178.827 213.472 179.907 212.824 180.723 212.008L185.331 216.472ZM180.147 198.76C179.571 197.56 178.659 196.672 177.411 196.096C176.163 195.472 174.891 195.16 173.595 195.16C172.203 195.16 170.907 195.424 169.707 195.952C168.555 196.48 167.547 197.2 166.683 198.112C165.819 198.976 165.123 199.984 164.595 201.136C164.115 202.288 163.875 203.464 163.875 204.664C163.875 204.904 163.875 205.072 163.875 205.168C163.923 205.264 163.947 205.336 163.947 205.384C165.195 204.904 166.539 204.376 167.979 203.8C169.467 203.176 170.931 202.576 172.371 202C173.811 201.376 175.203 200.8 176.547 200.272C177.891 199.696 179.091 199.192 180.147 198.76ZM193.171 189.904H198.571C198.667 191.392 198.739 192.76 198.787 194.008C198.883 195.208 198.979 196.408 199.075 197.608C200.179 195.016 201.739 192.952 203.755 191.416C205.819 189.88 208.339 189.112 211.315 189.112C214.339 189.112 216.763 189.952 218.587 191.632C220.411 193.312 221.371 195.472 221.467 198.112V220H215.275V200.92C215.179 199.384 214.651 198.088 213.691 197.032C212.731 195.928 211.219 195.328 209.155 195.232C207.715 195.232 206.395 195.496 205.195 196.024C203.995 196.504 202.963 197.176 202.099 198.04C201.235 198.904 200.539 199.936 200.011 201.136C199.531 202.336 199.291 203.656 199.291 205.096V220H193.171V189.904ZM229.804 189.904H235.204C235.3 191.392 235.372 192.76 235.42 194.008C235.516 195.208 235.612 196.408 235.708 197.608C236.812 195.016 238.372 192.952 240.388 191.416C242.452 189.88 244.972 189.112 247.948 189.112C250.972 189.112 253.396 189.952 255.22 191.632C257.044 193.312 258.004 195.472 258.1 198.112V220H251.908V200.92C251.812 199.384 251.284 198.088 250.324 197.032C249.364 195.928 247.852 195.328 245.788 195.232C244.348 195.232 243.028 195.496 241.828 196.024C240.628 196.504 239.596 197.176 238.732 198.04C237.868 198.904 237.172 199.936 236.644 201.136C236.164 202.336 235.924 203.656 235.924 205.096V220H229.804V189.904Z" fill="white"/>
</svg>
