<svg width="175" height="53" viewBox="0 0 175 53" fill="none" xmlns="http://www.w3.org/2000/svg">
<path d="M0 12C0 5.37258 5.37258 0 12 0H163C169.627 0 175 5.37258 175 12V41C175 47.6274 169.627 53 163 53H12C5.37259 53 0 47.6274 0 41V12Z" fill="#6FFFE9"/>
<path d="M58.239 27.62C58.239 26.516 58.443 25.484 58.851 24.524C59.283 23.54 59.859 22.688 60.579 21.968C61.299 21.224 62.127 20.636 63.063 20.204C64.023 19.772 65.043 19.556 66.123 19.556C66.843 19.556 67.503 19.652 68.103 19.844C68.703 20.012 69.219 20.228 69.651 20.492C70.083 20.756 70.431 21.032 70.695 21.32C70.959 21.608 71.139 21.86 71.235 22.076L71.379 19.952H74.331V35H71.235V33.092C71.115 33.284 70.923 33.512 70.659 33.776C70.395 34.04 70.047 34.292 69.615 34.532C69.207 34.748 68.715 34.94 68.139 35.108C67.563 35.276 66.903 35.36 66.159 35.36C65.007 35.36 63.939 35.156 62.955 34.748C61.995 34.316 61.167 33.752 60.471 33.056C59.775 32.336 59.223 31.508 58.815 30.572C58.431 29.636 58.239 28.652 58.239 27.62ZM61.335 27.44C61.335 28.136 61.455 28.784 61.695 29.384C61.959 29.984 62.307 30.5 62.739 30.932C63.171 31.364 63.687 31.712 64.287 31.976C64.887 32.216 65.547 32.336 66.267 32.336C66.987 32.336 67.647 32.216 68.247 31.976C68.871 31.712 69.399 31.364 69.831 30.932C70.287 30.476 70.635 29.96 70.875 29.384C71.115 28.784 71.235 28.136 71.235 27.44C71.235 26.744 71.115 26.108 70.875 25.532C70.635 24.932 70.287 24.416 69.831 23.984C69.399 23.552 68.871 23.216 68.247 22.976C67.647 22.712 66.987 22.58 66.267 22.58C65.547 22.58 64.887 22.712 64.287 22.976C63.687 23.216 63.171 23.552 62.739 23.984C62.307 24.416 61.959 24.932 61.695 25.532C61.455 26.108 61.335 26.744 61.335 27.44ZM87.0421 21.284L85.4221 23.444C85.3981 23.42 85.3141 23.36 85.1701 23.264C85.0261 23.168 84.8341 23.072 84.5941 22.976C84.3781 22.88 84.1141 22.796 83.8021 22.724C83.5141 22.628 83.2141 22.58 82.9021 22.58C82.4941 22.58 82.0861 22.676 81.6781 22.868C81.2941 23.06 81.1021 23.42 81.1021 23.948C81.1021 24.404 81.2581 24.776 81.5701 25.064C81.9061 25.352 82.3141 25.616 82.7941 25.856C83.2741 26.072 83.7901 26.3 84.3421 26.54C84.9181 26.78 85.4461 27.08 85.9261 27.44C86.4061 27.776 86.8021 28.208 87.1141 28.736C87.4501 29.24 87.6181 29.888 87.6181 30.68C87.6181 32.024 87.1501 33.14 86.2141 34.028C85.3021 34.892 84.0421 35.324 82.4341 35.324C81.4981 35.324 80.5741 35.168 79.6621 34.856C78.7741 34.52 78.0541 34.04 77.5021 33.416C77.6701 33.248 77.8501 33.032 78.0421 32.768C78.2581 32.504 78.4621 32.252 78.6541 32.012C78.8701 31.772 79.0381 31.58 79.1581 31.436C79.3021 31.268 79.3861 31.184 79.4101 31.184C79.4101 31.208 79.4941 31.28 79.6621 31.4C79.8541 31.52 80.0941 31.652 80.3821 31.796C80.6701 31.916 80.9941 32.036 81.3541 32.156C81.7141 32.252 82.0741 32.3 82.4341 32.3C83.0101 32.3 83.5021 32.156 83.9101 31.868C84.3181 31.58 84.5221 31.196 84.5221 30.716C84.5221 30.284 84.3541 29.948 84.0181 29.708C83.7061 29.444 83.3101 29.204 82.8301 28.988C82.3501 28.772 81.8221 28.556 81.2461 28.34C80.6701 28.1 80.1421 27.8 79.6621 27.44C79.1821 27.08 78.7741 26.636 78.4381 26.108C78.1261 25.556 77.9701 24.848 77.9701 23.984C77.9701 23.168 78.1141 22.484 78.4021 21.932C78.7141 21.38 79.0981 20.936 79.5541 20.6C80.0341 20.24 80.5621 19.988 81.1381 19.844C81.7141 19.676 82.2661 19.592 82.7941 19.592C83.4901 19.592 84.2341 19.736 85.0261 20.024C85.8181 20.312 86.4901 20.732 87.0421 21.284ZM99.2765 21.284L97.6565 23.444C97.6325 23.42 97.5485 23.36 97.4045 23.264C97.2605 23.168 97.0685 23.072 96.8285 22.976C96.6125 22.88 96.3485 22.796 96.0365 22.724C95.7485 22.628 95.4485 22.58 95.1365 22.58C94.7285 22.58 94.3205 22.676 93.9125 22.868C93.5285 23.06 93.3365 23.42 93.3365 23.948C93.3365 24.404 93.4925 24.776 93.8045 25.064C94.1405 25.352 94.5485 25.616 95.0285 25.856C95.5085 26.072 96.0245 26.3 96.5765 26.54C97.1525 26.78 97.6805 27.08 98.1605 27.44C98.6405 27.776 99.0365 28.208 99.3485 28.736C99.6845 29.24 99.8525 29.888 99.8525 30.68C99.8525 32.024 99.3845 33.14 98.4485 34.028C97.5365 34.892 96.2765 35.324 94.6685 35.324C93.7325 35.324 92.8085 35.168 91.8965 34.856C91.0085 34.52 90.2885 34.04 89.7365 33.416C89.9045 33.248 90.0845 33.032 90.2765 32.768C90.4925 32.504 90.6965 32.252 90.8885 32.012C91.1045 31.772 91.2725 31.58 91.3925 31.436C91.5365 31.268 91.6205 31.184 91.6445 31.184C91.6445 31.208 91.7285 31.28 91.8965 31.4C92.0885 31.52 92.3285 31.652 92.6165 31.796C92.9045 31.916 93.2285 32.036 93.5885 32.156C93.9485 32.252 94.3085 32.3 94.6685 32.3C95.2445 32.3 95.7365 32.156 96.1445 31.868C96.5525 31.58 96.7565 31.196 96.7565 30.716C96.7565 30.284 96.5885 29.948 96.2525 29.708C95.9405 29.444 95.5445 29.204 95.0645 28.988C94.5845 28.772 94.0565 28.556 93.4805 28.34C92.9045 28.1 92.3765 27.8 91.8965 27.44C91.4165 27.08 91.0085 26.636 90.6725 26.108C90.3605 25.556 90.2045 24.848 90.2045 23.984C90.2045 23.168 90.3485 22.484 90.6365 21.932C90.9485 21.38 91.3325 20.936 91.7885 20.6C92.2685 20.24 92.7965 19.988 93.3725 19.844C93.9485 19.676 94.5005 19.592 95.0285 19.592C95.7245 19.592 96.4685 19.736 97.2605 20.024C98.0525 20.312 98.7245 20.732 99.2765 21.284ZM115.867 33.236C115.147 33.884 114.271 34.4 113.239 34.784C112.207 35.168 111.151 35.36 110.071 35.36C108.967 35.36 107.923 35.156 106.939 34.748C105.979 34.316 105.139 33.752 104.419 33.056C103.699 32.336 103.123 31.496 102.691 30.536C102.283 29.576 102.079 28.556 102.079 27.476C102.079 26.396 102.283 25.376 102.691 24.416C103.123 23.456 103.699 22.616 104.419 21.896C105.139 21.176 105.967 20.612 106.903 20.204C107.863 19.772 108.883 19.556 109.963 19.556C111.667 19.556 113.143 20.072 114.391 21.104C115.663 22.112 116.575 23.444 117.127 25.1C116.383 25.364 115.531 25.688 114.571 26.072C113.611 26.456 112.615 26.864 111.583 27.296C110.551 27.704 109.519 28.112 108.487 28.52C107.455 28.928 106.495 29.3 105.607 29.636C106.015 30.452 106.603 31.112 107.371 31.616C108.163 32.096 109.039 32.336 109.999 32.336C110.647 32.336 111.295 32.216 111.943 31.976C112.615 31.736 113.155 31.412 113.563 31.004L115.867 33.236ZM113.275 24.38C112.987 23.78 112.531 23.336 111.907 23.048C111.283 22.736 110.647 22.58 109.999 22.58C109.303 22.58 108.655 22.712 108.055 22.976C107.479 23.24 106.975 23.6 106.543 24.056C106.111 24.488 105.763 24.992 105.499 25.568C105.259 26.144 105.139 26.732 105.139 27.332C105.139 27.452 105.139 27.536 105.139 27.584C105.163 27.632 105.175 27.668 105.175 27.692C105.799 27.452 106.471 27.188 107.191 26.9C107.935 26.588 108.667 26.288 109.387 26C110.107 25.688 110.803 25.4 111.475 25.136C112.147 24.848 112.747 24.596 113.275 24.38ZM119.787 19.952H122.487C122.535 20.696 122.571 21.38 122.595 22.004C122.643 22.604 122.691 23.204 122.739 23.804C123.291 22.508 124.071 21.476 125.079 20.708C126.111 19.94 127.371 19.556 128.859 19.556C130.371 19.556 131.583 19.976 132.495 20.816C133.407 21.656 133.887 22.736 133.935 24.056V35H130.839V25.46C130.791 24.692 130.527 24.044 130.047 23.516C129.567 22.964 128.811 22.664 127.779 22.616C127.059 22.616 126.399 22.748 125.799 23.012C125.199 23.252 124.683 23.588 124.251 24.02C123.819 24.452 123.471 24.968 123.207 25.568C122.967 26.168 122.847 26.828 122.847 27.548V35H119.787V19.952ZM139.399 13.328H142.459V19.988H146.491V22.724H142.459V35H139.399V22.724H136.699V19.988H139.399V13.328Z" fill="#4A1111"/>
<path d="M28.9843 10.1667C20.2442 10.1667 13.1667 17.26 13.1667 26C13.1667 34.74 20.2442 41.8333 28.9843 41.8333C37.7401 41.8333 44.8334 34.74 44.8334 26C44.8334 17.26 37.7401 10.1667 28.9843 10.1667ZM35.6976 35.5L29.0001 31.4625L22.3026 35.5L24.0759 27.8842L18.1701 22.77L25.9601 22.105L29.0001 14.9167L32.0401 22.0892L39.8301 22.7542L33.9243 27.8683L35.6976 35.5Z" fill="black"/>
</svg>
