<svg width="295" height="200" viewBox="0 0 295 200" fill="none" xmlns="http://www.w3.org/2000/svg">
<path d="M23.3513 19.4C23.7993 20.488 24.5353 22.28 25.5593 24.776C26.5833 27.208 27.7353 29.992 29.0153 33.128C30.3593 36.264 31.7353 39.592 33.1433 43.112C34.6153 46.632 35.9913 49.96 37.2713 53.096C38.5513 56.232 39.7033 59.048 40.7273 61.544C41.7513 63.976 42.4873 65.736 42.9353 66.824C42.9993 66.952 43.1593 67.4 43.4153 68.168C43.6713 68.936 43.8633 69.608 43.9913 70.184L44.9513 66.824C45.3993 65.736 46.1353 63.976 47.1593 61.544C48.1833 59.048 49.3353 56.232 50.6153 53.096C51.8953 49.96 53.2393 46.632 54.6473 43.112C56.1193 39.592 57.4953 36.264 58.7753 33.128C60.1193 29.992 61.3033 27.208 62.3273 24.776C63.3513 22.28 64.0873 20.488 64.5353 19.4H74.9033C74.5193 20.296 73.8153 21.928 72.7913 24.296C71.8313 26.6 70.6473 29.416 69.2393 32.744C67.8313 36.072 66.2633 39.72 64.5353 43.688C62.8713 47.656 61.1433 51.688 59.3513 55.784C57.6233 59.88 55.8953 63.912 54.1673 67.88C52.5033 71.848 50.9673 75.496 49.5593 78.824C48.2153 82.152 47.0313 85 46.0073 87.368C45.0473 89.672 44.3753 91.272 43.9913 92.168L12.9833 19.4H23.3513Z" fill="white"/>
<path d="M37.3513 19.4C37.7993 20.488 38.5353 22.28 39.5593 24.776C40.5833 27.208 41.7353 29.992 43.0153 33.128C44.3593 36.264 45.7353 39.592 47.1433 43.112C48.6153 46.632 49.9913 49.96 51.2713 53.096C52.5513 56.232 53.7033 59.048 54.7273 61.544C55.7513 63.976 56.4873 65.736 56.9353 66.824C56.9993 66.952 57.1593 67.4 57.4153 68.168C57.6713 68.936 57.8633 69.608 57.9913 70.184L58.9513 66.824C59.3993 65.736 60.1353 63.976 61.1593 61.544C62.1833 59.048 63.3353 56.232 64.6153 53.096C65.8953 49.96 67.2393 46.632 68.6473 43.112C70.1193 39.592 71.4953 36.264 72.7753 33.128C74.1193 29.992 75.3033 27.208 76.3273 24.776C77.3513 22.28 78.0873 20.488 78.5353 19.4H88.9033C88.5193 20.296 87.8153 21.928 86.7913 24.296C85.8313 26.6 84.6473 29.416 83.2393 32.744C81.8313 36.072 80.2633 39.72 78.5353 43.688C76.8713 47.656 75.1433 51.688 73.3513 55.784C71.6233 59.88 69.8953 63.912 68.1673 67.88C66.5033 71.848 64.9673 75.496 63.5593 78.824C62.2153 82.152 61.0313 85 60.0073 87.368C59.0473 89.672 58.3753 91.272 57.9913 92.168L26.9833 19.4H37.3513Z" fill="white"/>
</svg>
