<svg width="646" height="227" viewBox="0 0 646 227" fill="none" xmlns="http://www.w3.org/2000/svg">
<path d="M234.022 75C234.955 77.2667 236.488 81 238.622 86.2C240.755 91.2667 243.155 97.0667 245.822 103.6C248.622 110.133 251.488 117.067 254.422 124.4C257.488 131.733 260.355 138.667 263.022 145.2C265.688 151.733 268.088 157.6 270.222 162.8C272.355 167.867 273.888 171.533 274.822 173.8C274.955 174.067 275.288 175 275.822 176.6C276.355 178.2 276.755 179.6 277.022 180.8L279.022 173.8C279.955 171.533 281.488 167.867 283.622 162.8C285.755 157.6 288.155 151.733 290.822 145.2C293.488 138.667 296.288 131.733 299.222 124.4C302.288 117.067 305.155 110.133 307.822 103.6C310.622 97.0667 313.088 91.2667 315.222 86.2C317.355 81 318.888 77.2667 319.822 75H341.422C340.622 76.8667 339.155 80.2667 337.022 85.2C335.022 90 332.555 95.8667 329.622 102.8C326.688 109.733 323.422 117.333 319.822 125.6C316.355 133.867 312.755 142.267 309.022 150.8C305.422 159.333 301.822 167.733 298.222 176C294.755 184.267 291.555 191.867 288.622 198.8C285.822 205.733 283.355 211.667 281.222 216.6C279.222 221.4 277.822 224.733 277.022 226.6L212.422 75H234.022Z" fill="white"/>
<path d="M258.278 75C259.211 77.2667 260.744 81 262.878 86.2C265.011 91.2667 267.411 97.0667 270.078 103.6C272.878 110.133 275.745 117.067 278.678 124.4C281.745 131.733 284.611 138.667 287.278 145.2C289.945 151.733 292.345 157.6 294.478 162.8C296.611 167.867 298.145 171.533 299.078 173.8C299.211 174.067 299.545 175 300.078 176.6C300.611 178.2 301.011 179.6 301.278 180.8L303.278 173.8C304.211 171.533 305.745 167.867 307.878 162.8C310.011 157.6 312.411 151.733 315.078 145.2C317.745 138.667 320.545 131.733 323.478 124.4C326.545 117.067 329.411 110.133 332.078 103.6C334.878 97.0667 337.345 91.2667 339.478 86.2C341.611 81 343.145 77.2667 344.078 75H365.678C364.878 76.8667 363.411 80.2667 361.278 85.2C359.278 90 356.811 95.8667 353.878 102.8C350.945 109.733 347.678 117.333 344.078 125.6C340.611 133.867 337.011 142.267 333.278 150.8C329.678 159.333 326.078 167.733 322.478 176C319.011 184.267 315.811 191.867 312.878 198.8C310.078 205.733 307.611 211.667 305.478 216.6C303.478 221.4 302.078 224.733 301.278 226.6L236.678 75H258.278Z" fill="white"/>
<path d="M400.769 172.434C399.041 176.994 397.193 181.794 395.225 186.834C393.305 191.826 391.385 196.746 389.465 201.594C387.593 206.442 385.817 211.05 384.137 215.418C382.457 219.786 381.041 223.554 379.889 226.722L368.225 197.562C368.081 197.178 367.961 196.89 367.865 196.698C367.769 196.506 367.673 196.218 367.577 195.834C367.577 196.026 367.553 196.218 367.505 196.41C367.457 196.554 367.409 196.722 367.361 196.914C367.313 197.106 367.265 197.298 367.217 197.49C365.585 201.234 363.977 204.906 362.393 208.506C361.721 210.042 361.025 211.626 360.305 213.258C359.585 214.89 358.889 216.522 358.217 218.154C357.545 219.738 356.873 221.274 356.201 222.762C355.577 224.25 355.001 225.594 354.473 226.794C351.017 217.722 347.537 208.674 344.033 199.65C340.529 190.626 337.049 181.554 333.593 172.434H342.449C343.601 175.602 344.777 178.794 345.977 182.01C347.225 185.226 348.377 188.322 349.433 191.298C350.537 194.274 351.521 197.034 352.385 199.578C353.249 202.122 353.921 204.282 354.401 206.058L354.977 208.578C355.025 208.338 355.145 207.954 355.337 207.426C355.529 206.85 355.673 206.442 355.769 206.202C355.817 206.01 355.985 205.578 356.273 204.906C356.561 204.234 356.897 203.442 357.281 202.53C357.665 201.57 358.097 200.538 358.577 199.434C359.057 198.33 359.537 197.202 360.017 196.05C361.169 193.41 362.441 190.482 363.833 187.266C363.017 185.01 362.297 182.898 361.673 180.93C361.097 179.25 360.545 177.594 360.017 175.962C359.537 174.33 359.177 173.154 358.937 172.434H366.497C368.561 177.858 370.481 182.874 372.257 187.482C372.977 189.45 373.697 191.418 374.417 193.386C375.185 195.354 375.881 197.178 376.505 198.858C377.177 200.538 377.753 202.026 378.233 203.322C378.713 204.57 379.049 205.482 379.241 206.058C379.385 206.49 379.481 206.922 379.529 207.354C379.625 207.738 379.721 208.146 379.817 208.578C379.913 208.146 379.985 207.714 380.033 207.282C380.129 206.85 380.225 206.442 380.321 206.058C380.753 204.186 381.425 201.954 382.337 199.362C383.249 196.77 384.257 193.986 385.361 191.01C386.513 188.034 387.713 184.962 388.961 181.794C390.209 178.578 391.409 175.458 392.561 172.434H400.769ZM424.561 220.89C423.121 222.186 421.369 223.218 419.305 223.986C417.241 224.754 415.129 225.138 412.969 225.138C410.761 225.138 408.673 224.73 406.705 223.914C404.785 223.05 403.105 221.922 401.665 220.53C400.225 219.09 399.073 217.41 398.209 215.49C397.393 213.57 396.985 211.53 396.985 209.37C396.985 207.21 397.393 205.17 398.209 203.25C399.073 201.33 400.225 199.65 401.665 198.21C403.105 196.77 404.761 195.642 406.633 194.826C408.553 193.962 410.593 193.53 412.753 193.53C416.161 193.53 419.113 194.562 421.609 196.626C424.153 198.642 425.977 201.306 427.081 204.618C425.593 205.146 423.889 205.794 421.969 206.562C420.049 207.33 418.057 208.146 415.993 209.01C413.929 209.826 411.865 210.642 409.801 211.458C407.737 212.274 405.817 213.018 404.041 213.69C404.857 215.322 406.033 216.642 407.569 217.65C409.153 218.61 410.905 219.09 412.825 219.09C414.121 219.09 415.417 218.85 416.713 218.37C418.057 217.89 419.137 217.242 419.953 216.426L424.561 220.89ZM419.377 203.178C418.801 201.978 417.889 201.09 416.641 200.514C415.393 199.89 414.121 199.578 412.825 199.578C411.433 199.578 410.137 199.842 408.937 200.37C407.785 200.898 406.777 201.618 405.913 202.53C405.049 203.394 404.353 204.402 403.825 205.554C403.345 206.706 403.105 207.882 403.105 209.082C403.105 209.322 403.105 209.49 403.105 209.586C403.153 209.682 403.177 209.754 403.177 209.802C404.425 209.322 405.769 208.794 407.209 208.218C408.697 207.594 410.161 206.994 411.601 206.418C413.041 205.794 414.433 205.218 415.777 204.69C417.121 204.114 418.321 203.61 419.377 203.178ZM430.386 209.37C430.386 207.018 430.77 204.882 431.538 202.962C432.354 200.994 433.458 199.314 434.85 197.922C436.242 196.53 437.874 195.45 439.746 194.682C441.666 193.914 443.73 193.53 445.938 193.53C447.426 193.53 448.746 193.722 449.898 194.106C451.098 194.442 452.106 194.874 452.922 195.402C453.786 195.882 454.506 196.434 455.082 197.058C455.658 197.682 456.09 198.234 456.378 198.714V168.474H462.57V224.418H456.378V222.186C456.378 221.898 456.402 221.586 456.45 221.25C456.498 220.866 456.522 220.554 456.522 220.314C456.042 220.89 455.466 221.466 454.794 222.042C454.17 222.57 453.426 223.074 452.562 223.554C451.698 224.034 450.69 224.418 449.538 224.706C448.434 224.994 447.162 225.138 445.722 225.138C443.322 225.138 441.162 224.73 439.242 223.914C437.37 223.05 435.762 221.922 434.418 220.53C433.122 219.09 432.114 217.41 431.394 215.49C430.722 213.57 430.386 211.53 430.386 209.37ZM436.578 209.298C436.578 210.69 436.818 211.986 437.298 213.186C437.826 214.386 438.522 215.418 439.386 216.282C440.25 217.146 441.282 217.842 442.482 218.37C443.682 218.85 445.002 219.09 446.442 219.09C447.882 219.09 449.202 218.85 450.402 218.37C451.65 217.842 452.706 217.146 453.57 216.282C454.482 215.37 455.178 214.338 455.658 213.186C456.138 211.986 456.378 210.69 456.378 209.298C456.378 207.906 456.138 206.634 455.658 205.482C455.178 204.282 454.482 203.25 453.57 202.386C452.706 201.522 451.65 200.85 450.402 200.37C449.202 199.842 447.882 199.578 446.442 199.578C445.002 199.578 443.682 199.842 442.482 200.37C441.282 200.85 440.25 201.522 439.386 202.386C438.522 203.25 437.826 204.282 437.298 205.482C436.818 206.634 436.578 207.906 436.578 209.298ZM469.126 209.298C469.126 207.138 469.534 205.098 470.35 203.178C471.214 201.258 472.366 199.602 473.806 198.21C475.246 196.77 476.926 195.642 478.846 194.826C480.814 193.962 482.926 193.53 485.182 193.53C487.438 193.53 489.526 193.962 491.446 194.826C493.414 195.642 495.094 196.77 496.486 198.21C497.926 199.602 499.03 201.258 499.798 203.178C500.614 205.098 501.022 207.138 501.022 209.298C501.022 211.458 500.614 213.498 499.798 215.418C499.03 217.338 497.926 219.018 496.486 220.458C495.094 221.898 493.414 223.05 491.446 223.914C489.526 224.73 487.414 225.138 485.11 225.138C482.902 225.138 480.814 224.754 478.846 223.986C476.926 223.218 475.246 222.138 473.806 220.746C472.366 219.354 471.214 217.698 470.35 215.778C469.534 213.81 469.126 211.65 469.126 209.298ZM475.246 209.37C475.246 210.714 475.486 211.986 475.966 213.186C476.494 214.338 477.19 215.37 478.054 216.282C478.966 217.146 479.998 217.842 481.15 218.37C482.35 218.85 483.622 219.09 484.966 219.09C486.31 219.09 487.582 218.85 488.782 218.37C489.982 217.842 491.014 217.146 491.878 216.282C492.79 215.37 493.51 214.338 494.038 213.186C494.566 211.986 494.83 210.714 494.83 209.37C494.83 208.026 494.566 206.754 494.038 205.554C493.51 204.354 492.79 203.322 491.878 202.458C491.014 201.546 489.982 200.85 488.782 200.37C487.582 199.842 486.31 199.578 484.966 199.578C483.622 199.578 482.35 199.842 481.15 200.37C479.998 200.85 478.966 201.546 478.054 202.458C477.19 203.322 476.494 204.354 475.966 205.554C475.486 206.754 475.246 208.026 475.246 209.37Z" fill="white"/>
<path d="M95.1383 167.8C95.4743 168.616 96.0263 169.96 96.7943 171.832C97.5623 173.656 98.4263 175.744 99.3863 178.096C100.394 180.448 101.426 182.944 102.482 185.584C103.586 188.224 104.618 190.72 105.578 193.072C106.538 195.424 107.402 197.536 108.17 199.408C108.938 201.232 109.49 202.552 109.826 203.368C109.874 203.464 109.994 203.8 110.186 204.376C110.378 204.952 110.522 205.456 110.618 205.888L111.338 203.368C111.674 202.552 112.226 201.232 112.994 199.408C113.762 197.536 114.626 195.424 115.586 193.072C116.546 190.72 117.554 188.224 118.61 185.584C119.714 182.944 120.746 180.448 121.706 178.096C122.714 175.744 123.602 173.656 124.37 171.832C125.138 169.96 125.69 168.616 126.026 167.8H133.802C133.514 168.472 132.986 169.696 132.218 171.472C131.498 173.2 130.61 175.312 129.554 177.808C128.498 180.304 127.322 183.04 126.026 186.016C124.778 188.992 123.482 192.016 122.138 195.088C120.842 198.16 119.546 201.184 118.25 204.16C117.002 207.136 115.85 209.872 114.794 212.368C113.786 214.864 112.898 217 112.13 218.776C111.41 220.504 110.906 221.704 110.618 222.376L87.3623 167.8H95.1383ZM156.331 216.472C154.891 217.768 153.139 218.8 151.075 219.568C149.011 220.336 146.899 220.72 144.739 220.72C142.531 220.72 140.443 220.312 138.475 219.496C136.555 218.632 134.875 217.504 133.435 216.112C131.995 214.672 130.843 212.992 129.979 211.072C129.163 209.152 128.755 207.112 128.755 204.952C128.755 202.792 129.163 200.752 129.979 198.832C130.843 196.912 131.995 195.232 133.435 193.792C134.875 192.352 136.531 191.224 138.403 190.408C140.323 189.544 142.363 189.112 144.523 189.112C147.931 189.112 150.883 190.144 153.379 192.208C155.923 194.224 157.747 196.888 158.851 200.2C157.363 200.728 155.659 201.376 153.739 202.144C151.819 202.912 149.827 203.728 147.763 204.592C145.699 205.408 143.635 206.224 141.571 207.04C139.507 207.856 137.587 208.6 135.811 209.272C136.627 210.904 137.803 212.224 139.339 213.232C140.923 214.192 142.675 214.672 144.595 214.672C145.891 214.672 147.187 214.432 148.483 213.952C149.827 213.472 150.907 212.824 151.723 212.008L156.331 216.472ZM151.147 198.76C150.571 197.56 149.659 196.672 148.411 196.096C147.163 195.472 145.891 195.16 144.595 195.16C143.203 195.16 141.907 195.424 140.707 195.952C139.555 196.48 138.547 197.2 137.683 198.112C136.819 198.976 136.123 199.984 135.595 201.136C135.115 202.288 134.875 203.464 134.875 204.664C134.875 204.904 134.875 205.072 134.875 205.168C134.923 205.264 134.947 205.336 134.947 205.384C136.195 204.904 137.539 204.376 138.979 203.8C140.467 203.176 141.931 202.576 143.371 202C144.811 201.376 146.203 200.8 147.547 200.272C148.891 199.696 150.091 199.192 151.147 198.76ZM164.171 189.904H169.571C169.667 191.392 169.739 192.76 169.787 194.008C169.883 195.208 169.979 196.408 170.075 197.608C171.179 195.016 172.739 192.952 174.755 191.416C176.819 189.88 179.339 189.112 182.315 189.112C185.339 189.112 187.763 189.952 189.587 191.632C191.411 193.312 192.371 195.472 192.467 198.112V220H186.275V200.92C186.179 199.384 185.651 198.088 184.691 197.032C183.731 195.928 182.219 195.328 180.155 195.232C178.715 195.232 177.395 195.496 176.195 196.024C174.995 196.504 173.963 197.176 173.099 198.04C172.235 198.904 171.539 199.936 171.011 201.136C170.531 202.336 170.291 203.656 170.291 205.096V220H164.171V189.904ZM200.804 189.904H206.204C206.3 191.392 206.372 192.76 206.42 194.008C206.516 195.208 206.612 196.408 206.708 197.608C207.812 195.016 209.372 192.952 211.388 191.416C213.452 189.88 215.972 189.112 218.948 189.112C221.972 189.112 224.396 189.952 226.22 191.632C228.044 193.312 229.004 195.472 229.1 198.112V220H222.908V200.92C222.812 199.384 222.284 198.088 221.324 197.032C220.364 195.928 218.852 195.328 216.788 195.232C215.348 195.232 214.028 195.496 212.828 196.024C211.628 196.504 210.596 197.176 209.732 198.04C208.868 198.904 208.172 199.936 207.644 201.136C207.164 202.336 206.924 203.656 206.924 205.096V220H200.804V189.904Z" fill="white"/>
</svg>
