<svg width="133" height="45" viewBox="0 0 133 45" fill="none" xmlns="http://www.w3.org/2000/svg">
<path d="M23.817 2.12L21.945 6.392C20.633 5.912 19.321 5.528 18.009 5.24C16.729 4.952 15.497 4.808 14.313 4.808C12.297 4.808 10.681 5.224 9.465 6.056C8.281 6.888 7.689 7.944 7.689 9.224C7.689 10.312 8.121 11.192 8.985 11.864C9.849 12.504 10.921 13.096 12.201 13.64C13.481 14.152 14.873 14.68 16.377 15.224C17.881 15.736 19.273 16.408 20.553 17.24C21.833 18.072 22.905 19.128 23.769 20.408C24.633 21.656 25.065 23.272 25.065 25.256C25.065 26.792 24.777 28.184 24.201 29.432C23.657 30.648 22.825 31.704 21.705 32.6C20.617 33.496 19.241 34.184 17.577 34.664C15.945 35.144 14.025 35.384 11.817 35.384C10.409 35.384 9.129 35.288 7.977 35.096C6.857 34.904 5.833 34.664 4.905 34.376C4.009 34.056 3.209 33.72 2.505 33.368C1.833 33.016 1.257 32.696 0.777 32.408L3.081 27.848C4.361 28.584 5.785 29.176 7.353 29.624C8.921 30.072 10.345 30.296 11.625 30.296C12.265 30.296 13.049 30.216 13.977 30.056C14.937 29.896 15.849 29.624 16.713 29.24C17.577 28.824 18.313 28.28 18.921 27.608C19.561 26.936 19.881 26.088 19.881 25.064C19.881 24.136 19.625 23.352 19.113 22.712C18.633 22.04 17.977 21.464 17.145 20.984C16.345 20.472 15.417 20.024 14.361 19.64C13.337 19.224 12.281 18.808 11.193 18.392C10.105 17.944 9.033 17.48 7.977 17C6.953 16.52 6.025 15.944 5.193 15.272C4.393 14.568 3.737 13.768 3.225 12.872C2.745 11.944 2.505 10.84 2.505 9.56C2.505 8.376 2.745 7.208 3.225 6.056C3.705 4.904 4.425 3.88 5.385 2.984C6.345 2.088 7.529 1.368 8.937 0.823999C10.377 0.279999 12.041 0.00799847 13.929 0.00799847C15.081 0.00799847 16.201 0.103998 17.289 0.295998C18.409 0.487999 19.417 0.711999 20.313 0.967998C21.209 1.192 21.961 1.416 22.569 1.64C23.209 1.864 23.625 2.024 23.817 2.12ZM28.6958 7.256C28.6958 6.488 28.9678 5.848 29.5117 5.336C30.0878 4.824 30.6958 4.568 31.3358 4.568C31.9758 4.568 32.5678 4.824 33.1118 5.336C33.6558 5.848 33.9278 6.488 33.9278 7.256C33.9278 8.024 33.6558 8.664 33.1118 9.176C32.5678 9.656 31.9758 9.896 31.3358 9.896C30.6958 9.896 30.0878 9.656 29.5117 9.176C28.9678 8.664 28.6958 8.024 28.6958 7.256ZM33.3038 35H29.2238V14.936H33.3038V35ZM37.7235 25.016C37.7235 23.512 37.9955 22.12 38.5395 20.84C39.0835 19.528 39.8195 18.408 40.7475 17.48C41.6755 16.52 42.7635 15.768 44.0115 15.224C45.2595 14.68 46.5875 14.408 47.9955 14.408C49.0835 14.408 50.0435 14.552 50.8755 14.84C51.7395 15.128 52.4595 15.464 53.0355 15.848C53.6115 16.232 54.0595 16.616 54.3795 17C54.7315 17.352 54.9555 17.608 55.0515 17.768C55.0515 17.32 55.0835 16.856 55.1475 16.376C55.2115 15.864 55.2435 15.384 55.2435 14.936H59.1795V34.088C59.1795 37.416 58.2035 40.008 56.2515 41.864C54.2995 43.72 51.6595 44.648 48.3315 44.648C47.1795 44.648 46.1395 44.52 45.2115 44.264C44.3155 44.04 43.4835 43.736 42.7155 43.352C41.9795 42.968 41.2915 42.52 40.6515 42.008C40.0435 41.496 39.4355 40.968 38.8275 40.424L41.4675 37.64C42.4595 38.568 43.4675 39.304 44.4915 39.848C45.5475 40.392 46.7955 40.664 48.2355 40.664C50.3795 40.664 52.0435 40.152 53.2275 39.128C54.4115 38.104 55.0195 36.68 55.0515 34.856V33.464C55.0515 33.208 55.0835 32.936 55.1475 32.648C55.2115 32.328 55.2435 32.088 55.2435 31.928C54.9555 32.312 54.5875 32.728 54.1395 33.176C53.7235 33.592 53.2275 33.976 52.6515 34.328C52.0755 34.648 51.4035 34.92 50.6355 35.144C49.8675 35.368 49.0035 35.48 48.0435 35.48C46.5395 35.48 45.1635 35.208 43.9155 34.664C42.6675 34.12 41.5795 33.384 40.6515 32.456C39.7235 31.496 39.0035 30.392 38.4915 29.144C37.9795 27.864 37.7235 26.488 37.7235 25.016ZM41.8515 24.92C41.8515 25.848 42.0115 26.712 42.3315 27.512C42.6835 28.312 43.1475 29 43.7235 29.576C44.2995 30.152 44.9875 30.616 45.7875 30.968C46.5875 31.288 47.4675 31.448 48.4275 31.448C49.3875 31.448 50.2675 31.288 51.0675 30.968C51.8995 30.616 52.6035 30.152 53.1795 29.576C53.7875 28.968 54.2515 28.28 54.5715 27.512C54.8915 26.712 55.0515 25.848 55.0515 24.92C55.0515 23.992 54.8915 23.144 54.5715 22.376C54.2515 21.576 53.7875 20.888 53.1795 20.312C52.6035 19.736 51.8995 19.288 51.0675 18.968C50.2675 18.616 49.3875 18.44 48.4275 18.44C47.4675 18.44 46.5875 18.616 45.7875 18.968C44.9875 19.288 44.2995 19.736 43.7235 20.312C43.1475 20.888 42.6835 21.576 42.3315 22.376C42.0115 23.144 41.8515 23.992 41.8515 24.92ZM64.9425 14.936H68.5425C68.6065 15.928 68.6545 16.84 68.6865 17.672C68.7505 18.472 68.8145 19.272 68.8785 20.072C69.6145 18.344 70.6545 16.968 71.9985 15.944C73.3745 14.92 75.0545 14.408 77.0385 14.408C79.0545 14.408 80.6705 14.968 81.8865 16.088C83.1025 17.208 83.7425 18.648 83.8065 20.408V35H79.6785V22.28C79.6145 21.256 79.2625 20.392 78.6225 19.688C77.9825 18.952 76.9745 18.552 75.5985 18.488C74.6385 18.488 73.7585 18.664 72.9585 19.016C72.1585 19.336 71.4705 19.784 70.8945 20.36C70.3185 20.936 69.8545 21.624 69.5025 22.424C69.1825 23.224 69.0225 24.104 69.0225 25.064V35H64.9425V14.936ZM101.819 0.199999H107.051V35H101.819V0.199999ZM113.833 14.936H117.433C117.497 15.928 117.545 16.84 117.577 17.672C117.641 18.472 117.705 19.272 117.769 20.072C118.505 18.344 119.545 16.968 120.889 15.944C122.265 14.92 123.945 14.408 125.929 14.408C127.945 14.408 129.561 14.968 130.777 16.088C131.993 17.208 132.633 18.648 132.697 20.408V35H128.569V22.28C128.505 21.256 128.153 20.392 127.513 19.688C126.873 18.952 125.865 18.552 124.489 18.488C123.529 18.488 122.649 18.664 121.849 19.016C121.049 19.336 120.361 19.784 119.785 20.36C119.209 20.936 118.745 21.624 118.393 22.424C118.073 23.224 117.913 24.104 117.913 25.064V35H113.833V14.936Z" fill="white"/>
</svg>
